<svg width="26" height="26" viewBox="0 0 26 26" fill="none" xmlns="http://www.w3.org/2000/svg">
<g id="dashicons-editor-help">
<path id="Vector" d="M22.0984 13C22.0984 7.96902 18.0164 3.90002 12.9984 3.90002C7.96744 3.90002 3.89844 7.96902 3.89844 13C3.89844 18.031 7.96744 22.1 12.9984 22.1C18.0164 22.1 22.0984 18.031 22.0984 13ZM13.9084 14.924H11.8804V14.365C11.8804 13.871 11.9844 13.455 12.1924 13.091C12.4004 12.727 12.7904 12.35 13.3364 11.934C13.8694 11.557 14.2204 11.245 14.3894 11.011C14.5714 10.777 14.6494 10.504 14.6494 10.205C14.6494 9.88002 14.5324 9.63302 14.2854 9.45102C14.0384 9.28202 13.7004 9.20402 13.2584 9.20402C12.5044 9.20402 11.6334 9.45102 10.6584 9.94502L9.82644 8.28102C10.9574 7.64402 12.1664 7.31902 13.4274 7.31902C14.4804 7.31902 15.3124 7.57902 15.9234 8.07302C16.5474 8.58002 16.8464 9.25602 16.8464 10.088C16.8464 10.647 16.7294 11.128 16.4694 11.531C16.2224 11.947 15.7284 12.402 15.0264 12.909C14.5324 13.273 14.2334 13.546 14.1034 13.728C13.9734 13.923 13.9084 14.17 13.9084 14.469V14.924ZM11.9974 18.486C11.7634 18.265 11.6464 17.94 11.6464 17.537C11.6464 17.108 11.7504 16.783 11.9844 16.562C12.2184 16.341 12.5434 16.237 12.9854 16.237C13.4014 16.237 13.7264 16.354 13.9604 16.575C14.1944 16.796 14.3114 17.121 14.3114 17.537C14.3114 17.927 14.1944 18.252 13.9604 18.473C13.7264 18.707 13.4014 18.824 12.9854 18.824C12.5564 18.824 12.2314 18.707 11.9974 18.486Z" fill="#9CA3AF"/>
</g>
</svg>
