<svg width="27" height="24" viewBox="0 0 27 24" fill="none" xmlns="http://www.w3.org/2000/svg">
<path d="M0.0208933 6.66667C0.0207898 6.40878 0.0955449 6.1564 0.236085 5.94017C0.376626 5.72394 0.576909 5.55315 0.812627 5.44853L12.8126 0.115198C12.9831 0.0392488 13.1677 0 13.3543 0C13.5409 0 13.7255 0.0392488 13.896 0.115198L25.896 5.44853C26.1315 5.55336 26.3316 5.72421 26.472 5.94041C26.6124 6.1566 26.6871 6.40887 26.6871 6.66667C26.6871 6.92446 26.6124 7.17673 26.472 7.39293C26.3316 7.60912 26.1315 7.77998 25.896 7.8848L13.896 13.2181C13.7255 13.2941 13.5409 13.3333 13.3543 13.3333C13.1677 13.3333 12.9831 13.2941 12.8126 13.2181L0.812627 7.8848C0.576909 7.78018 0.376626 7.6094 0.236085 7.39316C0.0955449 7.17693 0.0207898 6.92456 0.0208933 6.66667ZM0.812627 13.2181L12.8126 18.5515C12.9831 18.6274 13.1677 18.6667 13.3543 18.6667C13.5409 18.6667 13.7255 18.6274 13.896 18.5515L25.896 13.2181C26.0589 13.149 26.2065 13.0481 26.3301 12.9213C26.4536 12.7946 26.5507 12.6445 26.6156 12.4798C26.6806 12.3151 26.7121 12.1391 26.7083 11.9621C26.7045 11.7851 26.6655 11.6107 26.5936 11.4489C26.5216 11.2872 26.4182 11.1414 26.2894 11.02C26.1605 10.8986 26.0087 10.8042 25.8429 10.7421C25.6772 10.68 25.5007 10.6515 25.3238 10.6583C25.1469 10.6652 24.9731 10.7072 24.8126 10.7819L13.3542 15.8744L1.89596 10.7819C1.73547 10.7072 1.5617 10.6652 1.38481 10.6583C1.20792 10.6515 1.03143 10.68 0.865652 10.7421C0.699874 10.8042 0.548119 10.8986 0.419242 11.02C0.290366 11.1414 0.186947 11.2872 0.11502 11.4489C0.0430921 11.6107 0.00409584 11.7851 0.000305657 11.9621C-0.00348452 12.1391 0.0280072 12.3151 0.092944 12.4798C0.157881 12.6445 0.254963 12.7946 0.378525 12.9213C0.502088 13.0481 0.649658 13.149 0.812627 13.2181ZM24.8126 16.1152L13.3542 21.2077L1.89596 16.1152C1.73547 16.0405 1.5617 15.9985 1.38481 15.9917C1.20792 15.9848 1.03143 16.0133 0.865652 16.0754C0.699874 16.1375 0.548119 16.232 0.419242 16.3533C0.290366 16.4747 0.186947 16.6205 0.11502 16.7823C0.0430921 16.944 0.00409584 17.1185 0.000305657 17.2955C-0.00348452 17.4725 0.0280072 17.6484 0.092944 17.8131C0.157881 17.9778 0.254963 18.1279 0.378525 18.2547C0.502088 18.3814 0.649658 18.4823 0.812627 18.5515L12.8126 23.8848C12.9831 23.9608 13.1677 24 13.3543 24C13.5409 24 13.7255 23.9608 13.896 23.8848L25.896 18.5515C26.0589 18.4823 26.2065 18.3814 26.3301 18.2547C26.4536 18.1279 26.5507 17.9778 26.6156 17.8131C26.6806 17.6484 26.7121 17.4725 26.7083 17.2955C26.7045 17.1185 26.6655 16.944 26.5936 16.7823C26.5216 16.6205 26.4182 16.4747 26.2894 16.3533C26.1605 16.232 26.0087 16.1375 25.8429 16.0754C25.6772 16.0133 25.5007 15.9848 25.3238 15.9917C25.1469 15.9985 24.9731 16.0405 24.8126 16.1152Z" fill="url(#paint0_linear_78_22)"/>
<defs>
<linearGradient id="paint0_linear_78_22" x1="13.3543" y1="0" x2="13.3543" y2="24" gradientUnits="userSpaceOnUse">
<stop stop-color="#6C21DC"/>
<stop offset="1" stop-color="#7A85EE"/>
</linearGradient>
</defs>
</svg>
