<svg width="20" height="20" viewBox="0 0 20 20" fill="none" xmlns="http://www.w3.org/2000/svg">
<rect width="20" height="20" fill="#F4F5F7"/>
<g id="8. RST_Redesign Hover">
<path d="M-703 -632C-703 -633.105 -702.105 -634 -701 -634H2428C2429.1 -634 2430 -633.105 2430 -632V1810C2430 1811.1 2429.1 1812 2428 1812H-701C-702.105 1812 -703 1811.1 -703 1810V-632Z" fill="#E5E5E5"/>
<g id="8.1 Getting Started" clip-path="url(#clip0_5372_11669)">
<g id="bg">
<rect width="1376" height="1796" transform="translate(-257 -266)" fill="#F0F0F1"/>
<g id="main content">
<g id="tab content" clip-path="url(#clip1_5372_11669)">
<g id="inner content">
<g id="categories, sorting">
<g id="categories">
<g id="Creative">
<g id="expand_more">
<mask id="mask0_5372_11669" style="mask-type:alpha" maskUnits="userSpaceOnUse" x="0" y="0" width="20" height="20">
<rect id="Bounding box" width="20" height="20" fill="#D9D9D9"/>
</mask>
<g mask="url(#mask0_5372_11669)">
<path id="expand_more_2" d="M10.0004 12.218C9.90534 12.218 9.81319 12.2019 9.72398 12.1699C9.63477 12.1378 9.55118 12.0828 9.47319 12.0048L5.71517 8.24682C5.59445 8.1261 5.53623 7.98187 5.5405 7.81413C5.54477 7.64639 5.60727 7.50217 5.728 7.38144C5.84872 7.26072 5.99509 7.20036 6.16709 7.20036C6.33909 7.20036 6.48545 7.26072 6.60617 7.38144L10.0004 10.7757L13.4075 7.36863C13.5282 7.24791 13.6724 7.18968 13.8402 7.19394C14.0079 7.19822 14.1521 7.26072 14.2728 7.38144C14.3936 7.50217 14.4539 7.64853 14.4539 7.82055C14.4539 7.99255 14.3936 8.13891 14.2728 8.25963L10.5276 12.0048C10.4497 12.0828 10.3674 12.1378 10.2809 12.1699C10.1943 12.2019 10.1008 12.218 10.0004 12.218Z" fill="#334155"/>
</g>
</g>
</g>
</g>
<path d="M-177 -23H1039V-25H-177V-23ZM1039 43H-177V45H1039V43Z" fill="#E5E7EB" mask="url(#path-3-inside-1_5372_11669)"/>
</g>
</g>
</g>
</g>
</g>
</g>
<path d="M-701 -633H2428V-635H-701V-633ZM2429 -632V1810H2431V-632H2429ZM2428 1811H-701V1813H2428V1811ZM-702 1810V-632H-704V1810H-702ZM-701 1811C-701.552 1811 -702 1810.55 -702 1810H-704C-704 1811.66 -702.657 1813 -701 1813V1811ZM2429 1810C2429 1810.55 2428.55 1811 2428 1811V1813C2429.66 1813 2431 1811.66 2431 1810H2429ZM2428 -633C2428.55 -633 2429 -632.552 2429 -632H2431C2431 -633.657 2429.66 -635 2428 -635V-633ZM-701 -635C-702.657 -635 -704 -633.657 -704 -632H-702C-702 -632.552 -701.552 -633 -701 -633V-635Z" fill="black" fill-opacity="0.1"/>
</g>
<defs>
<clipPath id="clip0_5372_11669">
<rect width="1536" height="1828" fill="white" transform="translate(-417 -298)"/>
</clipPath>
<clipPath id="clip1_5372_11669">
<rect width="1376" height="1346.12" fill="white" transform="translate(-257 -74)"/>
</clipPath>
</defs>
</svg>
