<?xml version="1.0" encoding="UTF-8"?><svg xmlns="http://www.w3.org/2000/svg" xmlns:xlink="http://www.w3.org/1999/xlink" width="375" zoomAndPan="magnify" viewBox="0 0 375 374.999991" height="374.999991" preserveAspectRatio="xMidYMid meet" version="1.0"><defs><clipPath id="clip-0"><path d="M 136 197 L 236 197 L 236 279.9375 L 136 279.9375 Z M 136 197 " clip-rule="nonzero"/></clipPath><clipPath id="clip-1"><path d="M 68 165 L 307 165 L 307 279.9375 L 68 279.9375 Z M 68 165 " clip-rule="nonzero"/></clipPath><clipPath id="clip-2"><path d="M 42.945312 141 L 50 141 L 50 149 L 42.945312 149 Z M 42.945312 141 " clip-rule="nonzero"/></clipPath><clipPath id="clip-3"><path d="M 42.945312 163 L 50 163 L 50 171 L 42.945312 171 Z M 42.945312 163 " clip-rule="nonzero"/></clipPath><clipPath id="clip-4"><path d="M 42.945312 185 L 50 185 L 50 193 L 42.945312 193 Z M 42.945312 185 " clip-rule="nonzero"/></clipPath><clipPath id="clip-5"><path d="M 42.945312 208 L 50 208 L 50 215 L 42.945312 215 Z M 42.945312 208 " clip-rule="nonzero"/></clipPath><clipPath id="clip-6"><path d="M 324 141 L 331.695312 141 L 331.695312 149 L 324 149 Z M 324 141 " clip-rule="nonzero"/></clipPath><clipPath id="clip-7"><path d="M 324 163 L 331.695312 163 L 331.695312 171 L 324 171 Z M 324 163 " clip-rule="nonzero"/></clipPath><clipPath id="clip-8"><path d="M 324 185 L 331.695312 185 L 331.695312 193 L 324 193 Z M 324 185 " clip-rule="nonzero"/></clipPath><clipPath id="clip-9"><path d="M 324 208 L 331.695312 208 L 331.695312 215 L 324 215 Z M 324 208 " clip-rule="nonzero"/></clipPath></defs><path fill="rgb(74.508667%, 78.42865%, 88.62915%)" d="M 213.441406 157.542969 C 213.441406 158.449219 213.398438 159.355469 213.308594 160.257812 C 213.21875 161.15625 213.085938 162.054688 212.910156 162.941406 C 212.730469 163.832031 212.511719 164.707031 212.25 165.574219 C 211.984375 166.441406 211.679688 167.296875 211.332031 168.132812 C 210.988281 168.96875 210.597656 169.789062 210.171875 170.585938 C 209.746094 171.386719 209.277344 172.164062 208.773438 172.914062 C 208.269531 173.667969 207.730469 174.394531 207.15625 175.097656 C 206.582031 175.796875 205.972656 176.46875 205.332031 177.109375 C 204.691406 177.75 204.019531 178.359375 203.316406 178.933594 C 202.617188 179.507812 201.890625 180.046875 201.136719 180.550781 C 200.382812 181.054688 199.605469 181.519531 198.804688 181.945312 C 198.003906 182.371094 197.1875 182.761719 196.347656 183.105469 C 195.511719 183.453125 194.65625 183.757812 193.789062 184.023438 C 192.921875 184.285156 192.042969 184.503906 191.152344 184.679688 C 190.265625 184.859375 189.367188 184.992188 188.464844 185.078125 C 187.5625 185.167969 186.660156 185.214844 185.75 185.214844 C 184.84375 185.214844 183.941406 185.167969 183.039062 185.078125 C 182.136719 184.992188 181.238281 184.859375 180.351562 184.679688 C 179.460938 184.503906 178.582031 184.285156 177.714844 184.023438 C 176.847656 183.757812 175.992188 183.453125 175.15625 183.105469 C 174.316406 182.761719 173.5 182.371094 172.699219 181.945312 C 171.898438 181.519531 171.121094 181.054688 170.367188 180.550781 C 169.613281 180.046875 168.886719 179.507812 168.183594 178.933594 C 167.484375 178.359375 166.8125 177.75 166.171875 177.109375 C 165.53125 176.46875 164.921875 175.796875 164.347656 175.097656 C 163.773438 174.394531 163.230469 173.667969 162.730469 172.914062 C 162.226562 172.164062 161.757812 171.386719 161.332031 170.585938 C 160.902344 169.789062 160.515625 168.96875 160.167969 168.132812 C 159.824219 167.296875 159.515625 166.441406 159.253906 165.574219 C 158.992188 164.707031 158.769531 163.832031 158.59375 162.941406 C 158.417969 162.054688 158.285156 161.15625 158.195312 160.257812 C 158.105469 159.355469 158.0625 158.449219 158.0625 157.542969 C 158.0625 156.636719 158.105469 155.734375 158.195312 154.832031 C 158.285156 153.929688 158.417969 153.035156 158.59375 152.144531 C 158.769531 151.257812 158.992188 150.378906 159.253906 149.511719 C 159.515625 148.644531 159.824219 147.792969 160.167969 146.957031 C 160.515625 146.117188 160.902344 145.300781 161.332031 144.5 C 161.757812 143.703125 162.226562 142.925781 162.730469 142.171875 C 163.230469 141.417969 163.773438 140.691406 164.347656 139.992188 C 164.921875 139.289062 165.53125 138.621094 166.171875 137.980469 C 166.8125 137.339844 167.484375 136.730469 168.183594 136.15625 C 168.886719 135.582031 169.613281 135.042969 170.367188 134.539062 C 171.121094 134.035156 171.898438 133.570312 172.699219 133.140625 C 173.5 132.714844 174.316406 132.328125 175.15625 131.980469 C 175.992188 131.632812 176.847656 131.328125 177.714844 131.066406 C 178.582031 130.804688 179.460938 130.582031 180.351562 130.40625 C 181.238281 130.230469 182.136719 130.097656 183.039062 130.007812 C 183.941406 129.917969 184.84375 129.875 185.75 129.875 C 186.660156 129.875 187.5625 129.917969 188.464844 130.007812 C 189.367188 130.097656 190.265625 130.230469 191.152344 130.40625 C 192.042969 130.582031 192.921875 130.804688 193.789062 131.066406 C 194.65625 131.328125 195.511719 131.632812 196.347656 131.980469 C 197.1875 132.328125 198.003906 132.714844 198.804688 133.140625 C 199.605469 133.570312 200.382812 134.035156 201.136719 134.539062 C 201.890625 135.042969 202.617188 135.582031 203.316406 136.15625 C 204.019531 136.730469 204.691406 137.339844 205.332031 137.980469 C 205.972656 138.621094 206.582031 139.289062 207.15625 139.992188 C 207.730469 140.691406 208.269531 141.417969 208.773438 142.171875 C 209.277344 142.925781 209.746094 143.703125 210.171875 144.5 C 210.597656 145.300781 210.988281 146.117188 211.332031 146.957031 C 211.679688 147.792969 211.984375 148.644531 212.25 149.511719 C 212.511719 150.378906 212.730469 151.257812 212.910156 152.144531 C 213.085938 153.035156 213.21875 153.929688 213.308594 154.832031 C 213.398438 155.734375 213.441406 156.636719 213.441406 157.542969 Z M 213.441406 157.542969 " fill-opacity="1" fill-rule="nonzero"/><path fill="rgb(74.508667%, 78.42865%, 88.62915%)" d="M 211.960938 157.542969 C 211.871094 168.375 205.089844 178.378906 194.84375 182.105469 C 184.417969 185.894531 172.601562 182.699219 165.496094 174.203125 C 158.476562 165.769531 157.617188 153.402344 163.246094 144.050781 C 168.902344 134.640625 180.214844 129.636719 190.992188 131.886719 C 203.164062 134.402344 211.871094 145.203125 211.960938 157.542969 C 211.960938 159.4375 214.921875 159.4375 214.921875 157.542969 C 214.832031 145.351562 207.132812 134.3125 195.644531 130.113281 C 184.269531 125.96875 171.003906 129.578125 163.304688 138.929688 C 155.484375 148.429688 154.390625 162.160156 160.816406 172.695312 C 167.152344 183.050781 179.503906 188.4375 191.40625 186.128906 C 204.972656 183.496094 214.804688 171.246094 214.890625 157.542969 C 214.953125 155.621094 211.988281 155.621094 211.960938 157.542969 Z M 211.960938 157.542969 " fill-opacity="1" fill-rule="nonzero"/><path fill="rgb(74.508667%, 78.42865%, 88.62915%)" d="M 186.847656 277.808594 L 137.6875 252.980469 C 137.6875 224.273438 159.21875 198.5 185.75 198.5 C 212.285156 198.5 233.816406 225.460938 233.816406 254.164062 L 186.847656 277.808594 " fill-opacity="1" fill-rule="nonzero"/><g clip-path="url(#clip-0)"><path fill="rgb(74.508667%, 78.42865%, 88.62915%)" d="M 187.585938 276.507812 C 182.078125 273.722656 176.542969 270.941406 171.035156 268.132812 C 162.179688 263.664062 153.351562 259.195312 144.5 254.726562 C 142.484375 253.691406 140.441406 252.683594 138.425781 251.648438 C 138.664062 252.0625 138.929688 252.507812 139.167969 252.921875 C 139.257812 232.53125 150.628906 211.578125 169.820312 203.234375 C 178.882812 199.300781 189.128906 198.824219 198.457031 202.082031 C 207.902344 205.367188 215.898438 212.171875 221.585938 220.308594 C 228.484375 230.222656 232.304688 242.121094 232.335938 254.164062 C 232.574219 253.75 232.839844 253.304688 233.074219 252.890625 C 227.804688 255.554688 222.53125 258.1875 217.230469 260.851562 C 208.792969 265.082031 200.382812 269.34375 191.941406 273.578125 C 189.988281 274.554688 188.03125 275.558594 186.078125 276.535156 C 184.390625 277.394531 185.871094 279.9375 187.558594 279.082031 C 192.828125 276.417969 198.101562 273.785156 203.402344 271.121094 C 211.84375 266.890625 220.253906 262.628906 228.691406 258.394531 C 230.648438 257.417969 232.601562 256.414062 234.554688 255.4375 C 235 255.199219 235.296875 254.667969 235.296875 254.164062 C 235.207031 232.53125 223.125 209.746094 202.839844 200.71875 C 193.183594 196.429688 182.316406 195.835938 172.277344 199.179688 C 162.265625 202.523438 153.796875 209.359375 147.609375 217.824219 C 140.203125 227.972656 136.265625 240.433594 136.207031 252.949219 C 136.207031 253.453125 136.472656 253.984375 136.945312 254.222656 C 142.457031 257.003906 147.992188 259.785156 153.5 262.597656 C 162.355469 267.066406 171.179688 271.535156 180.035156 276.003906 C 182.050781 277.039062 184.09375 278.046875 186.105469 279.082031 C 187.796875 279.9375 189.304688 277.394531 187.585938 276.507812 Z M 187.585938 276.507812 " fill-opacity="1" fill-rule="nonzero"/></g><path fill="rgb(74.508667%, 78.42865%, 88.62915%)" d="M 143.964844 126.265625 C 143.875 137.09375 137.09375 147.097656 126.847656 150.828125 C 116.425781 154.613281 104.609375 151.417969 97.5 142.925781 C 90.480469 134.492188 89.621094 122.121094 95.25 112.769531 C 100.964844 103.390625 112.277344 98.359375 123.058594 100.609375 C 135.167969 103.121094 143.875 113.953125 143.964844 126.265625 C 143.964844 128.160156 146.925781 128.160156 146.925781 126.265625 C 146.839844 114.070312 139.136719 103.035156 127.648438 98.832031 C 116.277344 94.6875 103.007812 98.300781 95.308594 107.652344 C 87.492188 117.148438 86.394531 130.882812 92.820312 141.414062 C 99.160156 151.773438 111.507812 157.160156 123.414062 154.851562 C 136.976562 152.21875 146.808594 139.964844 146.898438 126.265625 C 146.957031 124.371094 143.996094 124.371094 143.964844 126.265625 Z M 143.964844 126.265625 " fill-opacity="1" fill-rule="nonzero"/><g clip-path="url(#clip-1)"><path fill="rgb(74.508667%, 78.42865%, 88.62915%)" d="M 149.175781 180.683594 C 145.03125 174.265625 137.925781 170.0625 130.785156 167.753906 C 122.910156 165.238281 114.351562 165.121094 106.324219 167.160156 C 92.257812 170.742188 80.5 180.980469 74.105469 193.882812 C 70.195312 201.726562 68.269531 210.394531 68.210938 219.15625 C 68.210938 219.660156 68.476562 220.191406 68.953125 220.429688 C 72.890625 222.382812 76.828125 224.363281 80.738281 226.316406 C 90.15625 231.023438 99.601562 235.757812 109.019531 240.460938 C 120.390625 246.144531 131.734375 251.824219 143.105469 257.507812 C 152.851562 262.390625 162.59375 267.242188 172.335938 272.125 C 175.476562 273.695312 178.613281 275.261719 181.753906 276.832031 C 183.144531 277.542969 184.539062 278.339844 185.988281 278.960938 C 187.230469 279.496094 188.328125 278.667969 189.453125 278.105469 C 191.910156 276.890625 194.371094 275.675781 196.828125 274.433594 C 205.742188 269.996094 214.683594 265.558594 223.597656 261.148438 C 234.941406 255.523438 246.253906 249.902344 257.597656 244.28125 C 267.8125 239.21875 278.03125 234.128906 288.21875 229.070312 C 293.785156 226.316406 299.324219 223.535156 304.890625 220.785156 C 305.15625 220.664062 305.425781 220.515625 305.691406 220.398438 C 306.136719 220.160156 306.429688 219.601562 306.429688 219.125 C 306.371094 202.554688 299.175781 186.191406 285.996094 175.890625 C 272.789062 165.5625 254.695312 162.546875 239.265625 169.617188 C 233.371094 172.339844 227.507812 176.453125 223.660156 181.78125 C 222.53125 183.320312 225.109375 184.796875 226.207031 183.261719 C 229.078125 179.324219 233.757812 175.863281 238.167969 173.464844 C 245.425781 169.527344 253.628906 168.019531 261.832031 168.90625 C 276.816406 170.566406 289.847656 180.359375 296.984375 193.410156 C 301.308594 201.28125 303.441406 210.160156 303.46875 219.125 C 303.707031 218.710938 303.972656 218.269531 304.210938 217.855469 C 300.300781 219.808594 296.363281 221.761719 292.453125 223.683594 C 283.035156 228.359375 273.617188 233.035156 264.230469 237.710938 C 252.886719 243.332031 241.546875 248.957031 230.203125 254.609375 C 220.371094 259.492188 210.507812 264.375 200.675781 269.257812 C 197.417969 270.882812 194.164062 272.480469 190.90625 274.109375 C 189.425781 274.847656 187.675781 275.441406 186.3125 276.386719 C 186.253906 276.417969 186.167969 276.445312 186.105469 276.476562 C 186.609375 276.476562 187.113281 276.476562 187.585938 276.476562 C 183.679688 274.523438 179.769531 272.570312 175.859375 270.617188 C 166.5625 265.972656 157.292969 261.324219 147.992188 256.679688 C 136.679688 251.027344 125.367188 245.34375 114.054688 239.691406 C 104.3125 234.808594 94.566406 229.957031 84.824219 225.074219 C 81.625 223.476562 78.429688 221.878906 75.230469 220.28125 C 73.777344 219.570312 72.179688 218.445312 70.640625 217.972656 C 70.582031 217.941406 70.492188 217.914062 70.433594 217.882812 C 70.667969 218.296875 70.9375 218.742188 71.171875 219.15625 C 71.230469 205.011719 76.679688 191.101562 86.988281 181.277344 C 97.175781 171.542969 111.863281 166.570312 125.8125 169.5 C 133.6875 171.15625 142.128906 175.210938 146.628906 182.164062 C 147.667969 183.761719 150.214844 182.285156 149.175781 180.683594 Z M 149.175781 180.683594 " fill-opacity="1" fill-rule="nonzero"/></g><path fill="rgb(74.508667%, 78.42865%, 88.62915%)" d="M 283.09375 126.265625 C 283.007812 137.09375 276.222656 147.097656 265.976562 150.828125 C 255.554688 154.613281 243.738281 151.417969 236.628906 142.925781 C 229.609375 134.492188 228.753906 122.121094 234.378906 112.769531 C 240.035156 103.359375 251.347656 98.359375 262.128906 100.609375 C 274.269531 103.121094 283.007812 113.953125 283.09375 126.265625 C 283.09375 128.160156 286.054688 128.160156 286.054688 126.265625 C 285.96875 114.070312 278.269531 103.035156 266.777344 98.832031 C 255.40625 94.6875 242.136719 98.300781 234.4375 107.652344 C 226.621094 117.148438 225.523438 130.882812 231.949219 141.414062 C 238.289062 151.773438 250.636719 157.160156 262.542969 154.851562 C 276.105469 152.21875 285.9375 139.964844 286.027344 126.265625 C 286.054688 124.371094 283.09375 124.371094 283.09375 126.265625 Z M 283.09375 126.265625 " fill-opacity="1" fill-rule="nonzero"/><g clip-path="url(#clip-2)"><path fill="rgb(74.508667%, 78.42865%, 88.62915%)" d="M 49.730469 144.9375 C 49.730469 145.382812 49.644531 145.816406 49.476562 146.226562 C 49.304688 146.640625 49.058594 147.007812 48.742188 147.324219 C 48.425781 147.640625 48.0625 147.882812 47.648438 148.054688 C 47.234375 148.226562 46.804688 148.3125 46.355469 148.3125 C 45.90625 148.3125 45.476562 148.226562 45.0625 148.054688 C 44.648438 147.882812 44.285156 147.640625 43.96875 147.324219 C 43.652344 147.007812 43.40625 146.640625 43.238281 146.226562 C 43.066406 145.816406 42.980469 145.382812 42.980469 144.9375 C 42.980469 144.488281 43.066406 144.058594 43.238281 143.644531 C 43.40625 143.234375 43.652344 142.867188 43.96875 142.550781 C 44.285156 142.234375 44.648438 141.992188 45.0625 141.820312 C 45.476562 141.648438 45.90625 141.5625 46.355469 141.5625 C 46.804688 141.5625 47.234375 141.648438 47.648438 141.820312 C 48.0625 141.992188 48.425781 142.234375 48.742188 142.550781 C 49.058594 142.867188 49.304688 143.234375 49.476562 143.644531 C 49.644531 144.058594 49.730469 144.488281 49.730469 144.9375 Z M 49.730469 144.9375 " fill-opacity="1" fill-rule="nonzero"/></g><g clip-path="url(#clip-3)"><path fill="rgb(74.508667%, 78.42865%, 88.62915%)" d="M 49.730469 167.160156 C 49.730469 167.609375 49.644531 168.039062 49.476562 168.453125 C 49.304688 168.867188 49.058594 169.230469 48.742188 169.546875 C 48.425781 169.863281 48.0625 170.105469 47.648438 170.277344 C 47.234375 170.449219 46.804688 170.535156 46.355469 170.535156 C 45.90625 170.535156 45.476562 170.449219 45.0625 170.277344 C 44.648438 170.105469 44.285156 169.863281 43.96875 169.546875 C 43.652344 169.230469 43.40625 168.867188 43.238281 168.453125 C 43.066406 168.039062 42.980469 167.609375 42.980469 167.160156 C 42.980469 166.714844 43.066406 166.285156 43.238281 165.871094 C 43.40625 165.457031 43.652344 165.09375 43.96875 164.777344 C 44.285156 164.460938 44.648438 164.214844 45.0625 164.042969 C 45.476562 163.875 45.90625 163.789062 46.355469 163.789062 C 46.804688 163.789062 47.234375 163.875 47.648438 164.042969 C 48.0625 164.214844 48.425781 164.460938 48.742188 164.777344 C 49.058594 165.09375 49.304688 165.457031 49.476562 165.871094 C 49.644531 166.285156 49.730469 166.714844 49.730469 167.160156 Z M 49.730469 167.160156 " fill-opacity="1" fill-rule="nonzero"/></g><g clip-path="url(#clip-4)"><path fill="rgb(74.508667%, 78.42865%, 88.62915%)" d="M 49.730469 189.355469 C 49.730469 189.804688 49.644531 190.234375 49.476562 190.648438 C 49.304688 191.058594 49.058594 191.425781 48.742188 191.742188 C 48.425781 192.058594 48.0625 192.300781 47.648438 192.472656 C 47.234375 192.644531 46.804688 192.730469 46.355469 192.730469 C 45.90625 192.730469 45.476562 192.644531 45.0625 192.472656 C 44.648438 192.300781 44.285156 192.058594 43.96875 191.742188 C 43.652344 191.425781 43.40625 191.058594 43.238281 190.648438 C 43.066406 190.234375 42.980469 189.804688 42.980469 189.355469 C 42.980469 188.910156 43.066406 188.476562 43.238281 188.066406 C 43.40625 187.652344 43.652344 187.285156 43.96875 186.96875 C 44.285156 186.652344 44.648438 186.410156 45.0625 186.238281 C 45.476562 186.066406 45.90625 185.980469 46.355469 185.980469 C 46.804688 185.980469 47.234375 186.066406 47.648438 186.238281 C 48.0625 186.410156 48.425781 186.652344 48.742188 186.96875 C 49.058594 187.285156 49.304688 187.652344 49.476562 188.066406 C 49.644531 188.476562 49.730469 188.910156 49.730469 189.355469 Z M 49.730469 189.355469 " fill-opacity="1" fill-rule="nonzero"/></g><g clip-path="url(#clip-5)"><path fill="rgb(74.508667%, 78.42865%, 88.62915%)" d="M 49.730469 211.578125 C 49.730469 212.027344 49.644531 212.457031 49.476562 212.871094 C 49.304688 213.285156 49.058594 213.648438 48.742188 213.964844 C 48.425781 214.28125 48.0625 214.527344 47.648438 214.695312 C 47.234375 214.867188 46.804688 214.953125 46.355469 214.953125 C 45.90625 214.953125 45.476562 214.867188 45.0625 214.695312 C 44.648438 214.527344 44.285156 214.28125 43.96875 213.964844 C 43.652344 213.648438 43.40625 213.285156 43.238281 212.871094 C 43.066406 212.457031 42.980469 212.027344 42.980469 211.578125 C 42.980469 211.132812 43.066406 210.703125 43.238281 210.289062 C 43.40625 209.875 43.652344 209.511719 43.96875 209.195312 C 44.285156 208.878906 44.648438 208.632812 45.0625 208.464844 C 45.476562 208.292969 45.90625 208.207031 46.355469 208.207031 C 46.804688 208.207031 47.234375 208.292969 47.648438 208.464844 C 48.0625 208.632812 48.425781 208.878906 48.742188 209.195312 C 49.058594 209.511719 49.304688 209.875 49.476562 210.289062 C 49.644531 210.703125 49.730469 211.132812 49.730469 211.578125 Z M 49.730469 211.578125 " fill-opacity="1" fill-rule="nonzero"/></g><g clip-path="url(#clip-6)"><path fill="rgb(74.508667%, 78.42865%, 88.62915%)" d="M 331.664062 144.9375 C 331.664062 145.382812 331.578125 145.816406 331.40625 146.226562 C 331.234375 146.640625 330.992188 147.007812 330.675781 147.324219 C 330.359375 147.640625 329.992188 147.882812 329.578125 148.054688 C 329.164062 148.226562 328.734375 148.3125 328.285156 148.3125 C 327.839844 148.3125 327.410156 148.226562 326.996094 148.054688 C 326.582031 147.882812 326.214844 147.640625 325.898438 147.324219 C 325.582031 147.007812 325.339844 146.640625 325.167969 146.226562 C 324.996094 145.816406 324.910156 145.382812 324.910156 144.9375 C 324.910156 144.488281 324.996094 144.058594 325.167969 143.644531 C 325.339844 143.234375 325.582031 142.867188 325.898438 142.550781 C 326.214844 142.234375 326.582031 141.992188 326.996094 141.820312 C 327.410156 141.648438 327.839844 141.5625 328.285156 141.5625 C 328.734375 141.5625 329.164062 141.648438 329.578125 141.820312 C 329.992188 141.992188 330.359375 142.234375 330.675781 142.550781 C 330.992188 142.867188 331.234375 143.234375 331.40625 143.644531 C 331.578125 144.058594 331.664062 144.488281 331.664062 144.9375 Z M 331.664062 144.9375 " fill-opacity="1" fill-rule="nonzero"/></g><g clip-path="url(#clip-7)"><path fill="rgb(74.508667%, 78.42865%, 88.62915%)" d="M 331.664062 167.160156 C 331.664062 167.609375 331.578125 168.039062 331.40625 168.453125 C 331.234375 168.867188 330.992188 169.230469 330.675781 169.546875 C 330.359375 169.863281 329.992188 170.105469 329.578125 170.277344 C 329.164062 170.449219 328.734375 170.535156 328.285156 170.535156 C 327.839844 170.535156 327.410156 170.449219 326.996094 170.277344 C 326.582031 170.105469 326.214844 169.863281 325.898438 169.546875 C 325.582031 169.230469 325.339844 168.867188 325.167969 168.453125 C 324.996094 168.039062 324.910156 167.609375 324.910156 167.160156 C 324.910156 166.714844 324.996094 166.285156 325.167969 165.871094 C 325.339844 165.457031 325.582031 165.09375 325.898438 164.777344 C 326.214844 164.460938 326.582031 164.214844 326.996094 164.042969 C 327.410156 163.875 327.839844 163.789062 328.285156 163.789062 C 328.734375 163.789062 329.164062 163.875 329.578125 164.042969 C 329.992188 164.214844 330.359375 164.460938 330.675781 164.777344 C 330.992188 165.09375 331.234375 165.457031 331.40625 165.871094 C 331.578125 166.285156 331.664062 166.714844 331.664062 167.160156 Z M 331.664062 167.160156 " fill-opacity="1" fill-rule="nonzero"/></g><g clip-path="url(#clip-8)"><path fill="rgb(74.508667%, 78.42865%, 88.62915%)" d="M 331.664062 189.355469 C 331.664062 189.804688 331.578125 190.234375 331.40625 190.648438 C 331.234375 191.058594 330.992188 191.425781 330.675781 191.742188 C 330.359375 192.058594 329.992188 192.300781 329.578125 192.472656 C 329.164062 192.644531 328.734375 192.730469 328.285156 192.730469 C 327.839844 192.730469 327.410156 192.644531 326.996094 192.472656 C 326.582031 192.300781 326.214844 192.058594 325.898438 191.742188 C 325.582031 191.425781 325.339844 191.058594 325.167969 190.648438 C 324.996094 190.234375 324.910156 189.804688 324.910156 189.355469 C 324.910156 188.910156 324.996094 188.476562 325.167969 188.066406 C 325.339844 187.652344 325.582031 187.285156 325.898438 186.96875 C 326.214844 186.652344 326.582031 186.410156 326.996094 186.238281 C 327.410156 186.066406 327.839844 185.980469 328.285156 185.980469 C 328.734375 185.980469 329.164062 186.066406 329.578125 186.238281 C 329.992188 186.410156 330.359375 186.652344 330.675781 186.96875 C 330.992188 187.285156 331.234375 187.652344 331.40625 188.066406 C 331.578125 188.476562 331.664062 188.910156 331.664062 189.355469 Z M 331.664062 189.355469 " fill-opacity="1" fill-rule="nonzero"/></g><g clip-path="url(#clip-9)"><path fill="rgb(74.508667%, 78.42865%, 88.62915%)" d="M 331.664062 211.578125 C 331.664062 212.027344 331.578125 212.457031 331.40625 212.871094 C 331.234375 213.285156 330.992188 213.648438 330.675781 213.964844 C 330.359375 214.28125 329.992188 214.527344 329.578125 214.695312 C 329.164062 214.867188 328.734375 214.953125 328.285156 214.953125 C 327.839844 214.953125 327.410156 214.867188 326.996094 214.695312 C 326.582031 214.527344 326.214844 214.28125 325.898438 213.964844 C 325.582031 213.648438 325.339844 213.285156 325.167969 212.871094 C 324.996094 212.457031 324.910156 212.027344 324.910156 211.578125 C 324.910156 211.132812 324.996094 210.703125 325.167969 210.289062 C 325.339844 209.875 325.582031 209.511719 325.898438 209.195312 C 326.214844 208.878906 326.582031 208.632812 326.996094 208.464844 C 327.410156 208.292969 327.839844 208.207031 328.285156 208.207031 C 328.734375 208.207031 329.164062 208.292969 329.578125 208.464844 C 329.992188 208.632812 330.359375 208.878906 330.675781 209.195312 C 330.992188 209.511719 331.234375 209.875 331.40625 210.289062 C 331.578125 210.703125 331.664062 211.132812 331.664062 211.578125 Z M 331.664062 211.578125 " fill-opacity="1" fill-rule="nonzero"/></g></svg>