<svg xmlns="http://www.w3.org/2000/svg" width="24" height="24" viewBox="0 0 24 24" fill="none">
    <path d="M2.66667 24C1.93334 24 1.30534 23.7387 0.782669 23.216C0.260002 22.6933 -0.000886625 22.0658 2.26372e-06 21.3333V2.66667C2.26372e-06 1.93334 0.261336 1.30534 0.784002 0.782669C1.30667 0.260002 1.93422 -0.000886625 2.66667 2.26372e-06H12V2.66667H2.66667V21.3333H21.3333V12H24V21.3333C24 22.0667 23.7387 22.6947 23.216 23.2173C22.6933 23.74 22.0658 24.0009 21.3333 24H2.66667ZM8.93333 16.9333L7.06667 15.0667L19.4667 2.66667H14.6667V2.26372e-06H24V9.33333H21.3333V4.53333L8.93333 16.9333Z" fill="black"/>
  </svg>