<svg width="25" height="25" viewBox="0 0 25 25" fill="none" xmlns="http://www.w3.org/2000/svg">
<rect width="25" height="25" fill="#F4F5F7"/>
<g id="8. RST_Redesign Megamenu">
<path d="M-1697 -1220C-1697 -1221.1 -1696.1 -1222 -1695 -1222H1434C1435.1 -1222 1436 -1221.1 1436 -1220V1222C1436 1223.1 1435.1 1224 1434 1224H-1695C-1696.1 1224 -1697 1223.1 -1697 1222V-1220Z" fill="#E5E5E5"/>
<g id="8.1 Getting Started">
<g id="bg">
<rect width="1376" height="1796" transform="translate(-1251 -858)" fill="#F0F0F1"/>
<g id="main content">
<g id="tab content" clip-path="url(#clip0_5372_11669)">
<g id="inner content">
<g id="templates">
<g id="row 1">
<g id="Plugin - starter template">
<g id="text">
<mask id="path-4-inside-1_5372_11669" fill="white">
<path d="M-333 -12.9396H46V41.0604H-333V-12.9396Z"/>
</mask>
<path d="M-333 -12.9396H46V41.0604H-333V-12.9396Z" fill="white"/>
<path d="M46 41.0604V42.0604H47V41.0604H46ZM-333 41.0604H-334V42.0604H-333V41.0604ZM45 -12.9396V41.0604H47V-12.9396H45ZM46 40.0604H-333V42.0604H46V40.0604ZM-332 41.0604V-12.9396H-334V41.0604H-332Z" fill="#E5E7EB" mask="url(#path-4-inside-1_5372_11669)"/>
</g>
<rect x="-332.5" y="-507.5" width="378" height="548.06" rx="1.5" stroke="#E5E7EB"/>
</g>
<g id="mdi:heart">
<path id="Vector" d="M11.3263 20.4948L11.3256 20.4942C8.63349 18.053 6.43917 16.0597 4.91203 14.1914C3.39039 12.3298 2.5835 10.6533 2.5835 8.85417C2.5835 5.91215 4.87988 3.625 7.81266 3.625C9.47401 3.625 11.0768 4.40098 12.1207 5.61731L12.5002 6.05938L12.8796 5.61731C13.9235 4.40098 15.5263 3.625 17.1877 3.625C20.1205 3.625 22.4168 5.91215 22.4168 8.85417C22.4168 10.6533 21.6099 12.3298 20.0883 14.1914C18.5612 16.0597 16.3668 18.053 13.6747 20.4942L13.674 20.4948L12.5002 21.5634L11.3263 20.4948Z" fill="white" stroke="#EF4444"/>
</g>
</g>
</g>
</g>
</g>
</g>
</g>
</g>
<path d="M-1695 -1221H1434V-1223H-1695V-1221ZM1435 -1220V1222H1437V-1220H1435ZM1434 1223H-1695V1225H1434V1223ZM-1696 1222V-1220H-1698V1222H-1696ZM-1695 1223C-1695.55 1223 -1696 1222.55 -1696 1222H-1698C-1698 1223.66 -1696.66 1225 -1695 1225V1223ZM1435 1222C1435 1222.55 1434.55 1223 1434 1223V1225C1435.66 1225 1437 1223.66 1437 1222H1435ZM1434 -1221C1434.55 -1221 1435 -1220.55 1435 -1220H1437C1437 -1221.66 1435.66 -1223 1434 -1223V-1221ZM-1695 -1223C-1696.66 -1223 -1698 -1221.66 -1698 -1220H-1696C-1696 -1220.55 -1695.55 -1221 -1695 -1221V-1223Z" fill="black" fill-opacity="0.1"/>
</g>
<defs>
<clipPath id="clip0_5372_11669">
<rect width="1376" height="1346.12" fill="white" transform="translate(-1251 -666)"/>
</clipPath>
</defs>
</svg>
