<svg width="24" height="24" viewBox="0 0 24 24" fill="none" xmlns="http://www.w3.org/2000/svg">
<g clip-path="url(#clip0_5453_11391)">
<path d="M7.04179 0.215985C6.88819 0.285585 6.64099 0.508785 6.52099 0.686385C6.34339 0.945585 6.28099 1.14958 6.26899 1.51678L6.25939 1.82158L6.18259 1.80718C5.98819 1.77358 5.77219 1.64398 5.44819 1.36798C5.10259 1.07518 4.78339 0.916785 4.45699 0.875985C4.12579 0.835185 3.84019 1.02958 3.89779 1.25758C3.92659 1.37518 4.21459 1.76878 4.41379 1.96798C4.64899 2.19838 4.84579 2.32318 5.12419 2.41678C5.29219 2.47438 5.35459 2.48158 5.64019 2.48158C5.90419 2.48398 6.00499 2.47438 6.19459 2.42638C6.49459 2.34958 6.54739 2.36158 6.75859 2.54638C6.84979 2.62558 6.97459 2.71678 7.03699 2.74798L7.15219 2.80078L6.93619 2.90158C6.60259 3.05518 6.40339 3.10078 6.03619 3.10558C5.58259 3.10798 5.20099 3.00958 4.69219 2.75518C4.26019 2.53678 3.94099 2.30158 3.47539 1.85518C3.26419 1.65118 3.17539 1.58398 3.11299 1.57198C2.97859 1.54558 2.84179 1.63438 2.81779 1.76398C2.79859 1.86958 2.84179 1.94398 3.08899 2.23678C3.54739 2.78158 3.85219 3.34078 4.00099 3.90958C4.05139 4.10398 4.06099 4.19518 4.06099 4.47598C4.06099 5.07118 3.94579 5.38798 3.50179 5.98798C3.19459 6.40558 2.93059 6.82078 2.69779 7.25518C2.50099 7.62478 2.40259 7.74238 2.21779 7.83358C1.93939 7.97038 1.40659 7.93438 1.10659 7.75918C0.936191 7.66078 0.758591 7.47838 0.669791 7.31278C0.592991 7.17118 0.588191 7.15198 0.588191 6.91198C0.588191 6.67918 0.592991 6.64798 0.664991 6.49678C0.756191 6.30478 0.957791 6.08158 1.12579 5.99278C1.29619 5.89918 1.48099 5.86078 1.88419 5.83198C2.45059 5.79598 2.70979 5.70478 2.98099 5.45278C3.70099 4.77838 3.34579 3.59998 2.37379 3.44878C2.11459 3.40798 1.76179 3.49678 1.58419 3.64318C1.51939 3.69838 1.50259 3.72958 1.50259 3.79918C1.50259 3.90478 1.57459 4.01038 1.66339 4.03438C1.70179 4.04398 1.79059 4.03678 1.87699 4.01518C1.96099 3.99358 2.11939 3.97678 2.23219 3.97438C2.40019 3.97198 2.45539 3.98158 2.55139 4.02718C2.77219 4.13758 2.89699 4.37038 2.87539 4.64158C2.86099 4.81678 2.79859 4.94398 2.67139 5.07118C2.50339 5.24158 2.37139 5.28718 1.93219 5.32798C1.56739 5.36398 1.19299 5.43118 0.955391 5.50558L0.770591 5.56318L0.763391 3.85438C0.756191 2.25598 0.753791 2.14078 0.712991 2.08078C0.619391 1.93678 0.400991 1.94398 0.319391 2.09518C0.278591 2.16718 0.276191 2.31358 0.271391 4.13998C0.266591 5.46238 0.256991 6.14398 0.240191 6.21598C0.225791 6.27598 0.187391 6.36478 0.153791 6.41278C0.0985914 6.49918 0.0961914 6.51838 0.0961914 6.90238V7.30078L0.196991 7.49518C0.338591 7.76878 0.638591 8.07118 0.888191 8.19358C1.18819 8.33758 1.39699 8.38318 1.81219 8.38558L2.17459 8.38798L2.09299 8.65198C1.83859 9.48478 1.67299 10.3488 1.60579 11.196C1.56499 11.7024 1.59139 12.7176 1.65619 13.2C1.90819 15.0768 2.68339 16.896 3.85699 18.36C4.15939 18.7392 4.77379 19.3752 5.14579 19.6944C5.81779 20.2752 6.61699 20.8032 7.45219 21.2208L7.78579 21.3888L7.73059 21.4344C7.69939 21.4608 7.63939 21.48 7.59619 21.48C7.49539 21.48 7.14499 21.5808 6.93139 21.672C6.68659 21.7776 6.37219 21.9912 6.17779 22.1856C5.98579 22.3776 5.77459 22.6872 5.65459 22.9512C5.54899 23.1816 5.46259 23.256 5.30179 23.256C5.23459 23.256 5.16019 23.244 5.13379 23.232C5.08339 23.2032 5.07379 23.1072 5.11219 23.004C5.14579 22.9152 5.10259 22.6512 5.02579 22.4952C4.93699 22.3104 4.74019 22.14 4.54339 22.08C4.45699 22.0536 4.32259 22.032 4.24579 22.032C4.04899 22.032 4.00819 21.9888 4.00819 21.7848C4.00819 21.3576 3.79459 20.9352 3.44899 20.6736C3.15139 20.4504 2.83459 20.3376 2.32099 20.268C1.56979 20.1672 1.10659 19.9008 0.880991 19.4376C0.672191 19.0128 0.710591 18.5664 0.998591 18.1176C1.05379 18.0312 1.10659 17.9376 1.11379 17.9112C1.16899 17.7384 0.883391 17.5656 0.727391 17.676C0.662591 17.7216 0.465791 18.0192 0.393791 18.1824C0.302591 18.3888 0.259391 18.5952 0.259391 18.828C0.259391 19.3128 0.468191 19.764 0.909791 20.2344L1.10179 20.4408L0.969791 20.5464C0.811391 20.6736 0.597791 20.9352 0.504191 21.1176C0.288191 21.5496 0.189791 22.3224 0.328991 22.5072C0.412991 22.6224 0.513791 22.6032 0.792191 22.4256C0.868991 22.3776 1.05619 22.3008 1.23619 22.2456C1.63939 22.1184 1.80019 22.0344 1.98259 21.8592C2.20099 21.6504 2.35459 21.3024 2.31619 21.1056C2.28979 20.9616 2.09539 20.8512 1.97059 20.9112C1.91059 20.94 1.88659 20.9856 1.78579 21.2736C1.73299 21.4272 1.58659 21.5832 1.43059 21.6576C1.33219 21.7032 0.938591 21.816 0.878591 21.816C0.852191 21.816 0.864191 21.636 0.897791 21.5112C0.974591 21.2184 1.13299 21.0072 1.36099 20.8872C1.54819 20.7888 1.73299 20.7528 2.06419 20.7504C2.40259 20.7504 2.64739 20.8008 2.92339 20.928C3.58819 21.24 3.72019 22.0128 3.19459 22.536C3.00499 22.7256 2.84899 22.7832 2.55379 22.7712C2.35699 22.764 2.31619 22.752 2.12659 22.6608C1.90819 22.5576 1.83139 22.5408 1.74739 22.5864C1.69699 22.6128 1.63219 22.7448 1.63219 22.8216C1.63219 22.8936 1.73779 23.004 1.92739 23.1288L2.09779 23.244L1.31779 23.256C0.508991 23.268 0.463391 23.2752 0.408191 23.376C0.396191 23.4 0.384191 23.4696 0.384191 23.5296C0.384191 23.6592 0.439391 23.724 0.571391 23.7456C0.710591 23.7672 5.84899 23.76 6.03139 23.7384C6.20899 23.7144 6.28819 23.6664 6.28819 23.58C6.28819 23.5512 6.24499 23.4576 6.19219 23.3688C6.13939 23.2824 6.09619 23.1888 6.09619 23.16C6.09619 23.0808 6.35779 22.704 6.54259 22.524C7.34899 21.7272 8.76499 21.7632 9.49939 22.5984C9.87139 23.0208 9.88339 23.0472 9.78019 23.148C9.73699 23.1936 9.69619 23.208 9.61699 23.208C9.48739 23.208 9.41779 23.1576 9.29059 22.9728C9.02899 22.5864 8.61619 22.3704 8.14819 22.368C7.67779 22.368 7.14739 22.6896 6.94819 23.0976C6.79459 23.4096 6.81139 23.5848 7.00579 23.6424C7.14259 23.6832 7.21459 23.6376 7.33699 23.436C7.60579 22.9872 7.94179 22.7904 8.30659 22.872C8.47459 22.908 8.74579 23.04 8.75539 23.0904C8.76019 23.1144 8.70979 23.184 8.64259 23.2512C8.50099 23.3928 8.47459 23.4696 8.53219 23.5584C8.61619 23.688 8.67859 23.6976 9.51619 23.6976C10.1954 23.7 10.2938 23.6952 10.3586 23.6592C10.5218 23.5704 10.5194 23.4 10.349 23.016C10.2266 22.7424 10.073 22.5096 9.84979 22.2576C9.68179 22.068 9.67219 22.0512 9.73459 22.0656C9.77299 22.0728 10.0514 22.1184 10.3562 22.1664C10.9202 22.2552 11.0402 22.2888 11.0402 22.3656C11.0402 22.4568 11.2154 22.7496 11.4026 22.968C11.645 23.2536 11.7482 23.4048 11.8106 23.5704C11.8802 23.7528 11.9378 23.808 12.0602 23.808C12.185 23.808 12.221 23.7696 12.3554 23.496C12.4154 23.3736 12.5378 23.1912 12.6602 23.04C12.881 22.7712 13.0346 22.5312 13.0778 22.3872C13.0946 22.3392 13.1186 22.2888 13.1354 22.2768C13.1642 22.2528 14.3474 22.044 14.3642 22.0584C14.369 22.0632 14.2634 22.2192 14.1314 22.404C13.8674 22.7712 13.7978 22.896 13.7138 23.1456C13.6106 23.4456 13.6538 23.6088 13.8434 23.664C13.9706 23.7 15.0794 23.7192 15.6098 23.6952L16.061 23.6736L16.1186 23.6088C16.1546 23.5656 16.1762 23.5104 16.1762 23.4576C16.1762 23.2536 16.0802 23.208 15.6434 23.208H15.3266L15.4178 23.1144C15.4682 23.064 15.5642 22.9896 15.6338 22.9536C15.7418 22.8912 15.7802 22.884 15.9722 22.884C16.1618 22.884 16.205 22.8936 16.3154 22.9512C16.4882 23.0424 16.6202 23.1864 16.7306 23.4024C16.8386 23.6208 16.9226 23.6976 17.0258 23.6784C17.2082 23.6424 17.2802 23.5296 17.237 23.3568C17.1146 22.8864 16.709 22.5072 16.2122 22.404C15.9842 22.356 15.8114 22.3584 15.5906 22.416C15.2402 22.5048 14.9738 22.692 14.7914 22.9752C14.669 23.1672 14.5754 23.2224 14.4074 23.196C14.3522 23.1888 14.2994 23.172 14.2922 23.16C14.2634 23.1144 14.4866 22.74 14.6474 22.5696C14.921 22.2768 15.2306 22.0968 15.6218 22.0032C15.8978 21.9384 16.4282 21.9504 16.7042 22.0296C17.2202 22.1784 17.6714 22.5144 17.8922 22.908C18.0218 23.1384 18.0242 23.1792 17.9066 23.3544C17.8394 23.4552 17.8082 23.5272 17.8082 23.5848C17.8082 23.6568 17.8202 23.6712 17.8994 23.7072C17.981 23.7456 18.2066 23.748 20.8082 23.748C23.9186 23.748 23.7626 23.7552 23.8058 23.6016C23.837 23.4912 23.7986 23.3616 23.717 23.3088C23.6618 23.2728 23.5682 23.268 22.9034 23.2608C22.1834 23.2536 22.1522 23.2512 22.1522 23.208C22.1522 23.1816 22.1954 23.1336 22.2554 23.0904C22.3802 23.004 22.5122 22.86 22.5122 22.8096C22.5122 22.752 22.445 22.6392 22.3874 22.5984C22.3058 22.5408 22.2218 22.5528 22.0538 22.6416C21.5978 22.884 21.2258 22.8432 20.9162 22.5216C20.5034 22.0944 20.4986 21.5592 20.9018 21.1488C21.1778 20.868 21.4754 20.76 21.9698 20.76C22.3154 20.76 22.553 20.7912 22.6946 20.8536C22.8218 20.9112 23.0018 21.0744 23.0786 21.204C23.1914 21.3984 23.3042 21.816 23.2442 21.816C23.1794 21.816 22.7546 21.6984 22.6778 21.66C22.4522 21.5448 22.3154 21.372 22.2698 21.1416C22.2362 20.9712 22.1642 20.8944 22.0418 20.8968C21.9314 20.8992 21.845 20.9616 21.8018 21.0624C21.7706 21.1368 21.7706 21.1632 21.8042 21.2952C21.8618 21.5208 21.9386 21.6696 22.073 21.816C22.241 21.9984 22.4138 22.0944 22.8074 22.224C23.1578 22.3392 23.2706 22.3896 23.465 22.512C23.6042 22.6008 23.6858 22.6032 23.7626 22.5216C23.8178 22.4616 23.8202 22.4448 23.8202 22.1448C23.8178 21.4272 23.5562 20.856 23.0666 20.5008L22.9658 20.4264L23.033 20.3904C23.2394 20.2824 23.4986 19.9968 23.6378 19.7304C23.7674 19.4784 23.9042 19.056 23.9042 18.9024C23.9042 18.7488 23.7602 18.2352 23.6594 18.0384C23.5274 17.7768 23.3882 17.64 23.2562 17.64C23.177 17.64 23.069 17.712 23.0402 17.784C23.0114 17.8536 23.0186 17.8824 23.1698 18.2424C23.5034 19.0416 23.3066 19.7112 22.6322 20.052C22.445 20.1456 22.1498 20.2272 21.7898 20.28C21.4106 20.3352 21.0242 20.4504 20.8106 20.5728C20.6282 20.676 20.405 20.9088 20.309 21.0912C20.2634 21.1728 20.201 21.3504 20.1698 21.4872C20.0666 21.9 19.973 22.0008 19.6394 22.0536C19.4402 22.0848 19.3418 22.1352 19.2242 22.2648C19.1042 22.3944 19.0178 22.5792 18.9866 22.7784C18.965 22.9104 18.9674 22.9416 19.013 23.0472L19.0658 23.1672L19.0106 23.2104C18.941 23.2656 18.7466 23.2704 18.6506 23.22C18.6002 23.196 18.5402 23.1048 18.4226 22.8792C18.1634 22.3752 17.8754 22.0608 17.441 21.8088C17.1866 21.6624 16.9178 21.5592 16.6274 21.4968C16.4978 21.4704 16.3946 21.4464 16.3994 21.444C16.4018 21.4416 16.5722 21.3384 16.7762 21.216C18.7514 20.0352 20.2202 18.6528 21.173 17.076C21.833 15.984 22.2338 14.82 22.4186 13.4568C22.4834 12.984 22.5074 11.8752 22.4666 11.3328C22.4042 10.5384 22.2554 9.63838 22.0514 8.84398C21.9986 8.63278 21.9506 8.44798 21.9434 8.43358C21.9362 8.41438 22.0346 8.40238 22.265 8.39278C22.6442 8.37838 22.8578 8.32798 23.1242 8.18878C23.4146 8.03518 23.7002 7.72798 23.849 7.40158C23.9042 7.27678 23.9066 7.25998 23.897 6.85918C23.8922 6.63118 23.8754 6.39598 23.861 6.33598C23.8418 6.26158 23.8346 5.56798 23.8322 4.13758C23.8322 2.18158 23.8298 2.04238 23.7914 1.99438C23.7362 1.92718 23.5922 1.90318 23.4938 1.94398C23.3498 2.00398 23.3522 1.96078 23.3522 3.89758V5.65918L23.2346 5.60398C22.9466 5.46478 22.6658 5.39998 22.0466 5.32798C21.7106 5.28958 21.5978 5.26798 21.5066 5.22238C21.1802 5.05678 21.0266 4.62718 21.1778 4.30798C21.3266 3.99118 21.6242 3.89278 22.0898 4.01038C22.3178 4.06798 22.3994 4.05118 22.457 3.93598C22.5506 3.74878 22.457 3.61918 22.1498 3.51838C21.4418 3.28318 20.7362 3.70558 20.633 4.42798C20.5634 4.90078 20.8562 5.44798 21.2906 5.66158C21.4826 5.75518 21.689 5.79838 22.1162 5.83198C22.5314 5.86558 22.7186 5.90638 22.901 6.00478C23.3426 6.23998 23.5538 6.86638 23.3402 7.30318C23.2634 7.45918 23.0498 7.67278 22.8914 7.75438C22.6202 7.89118 22.073 7.94638 21.7922 7.86478C21.6218 7.81438 21.569 7.75678 21.3842 7.41598C21.1562 6.99358 20.9522 6.65998 20.573 6.09598C20.0378 5.29918 19.961 5.10478 19.961 4.51198C19.961 3.72718 20.237 3.06718 20.9138 2.25598C21.1706 1.94638 21.2258 1.85518 21.2018 1.76638C21.1802 1.67998 21.0794 1.58638 20.9882 1.56958C20.8754 1.55038 20.7794 1.60798 20.5682 1.82158C20.033 2.36878 19.3274 2.82958 18.7826 2.98558C18.485 3.07198 18.317 3.09598 17.9882 3.09598C17.609 3.09358 17.3618 3.04798 17.1386 2.93758L16.9586 2.84878L17.1074 2.70958C17.3978 2.43598 17.633 2.37358 18.0314 2.46958C18.4034 2.55838 18.6698 2.52718 19.0514 2.34958C19.3202 2.22478 19.5146 2.08318 19.7354 1.84798C20.0498 1.51198 20.1794 1.16638 20.0402 1.01998C19.9154 0.887985 19.5554 0.847185 19.2698 0.935985C19.0682 0.998385 18.9074 1.09678 18.5186 1.39918C18.2138 1.63678 18.0194 1.75438 17.8778 1.78798L17.8178 1.80238V1.48318C17.8154 1.24798 17.8034 1.12318 17.7722 1.01278C17.6882 0.719985 17.4362 0.412785 17.1626 0.266385C16.949 0.153585 16.8194 0.175185 16.7522 0.333585C16.7042 0.451185 16.7402 0.520785 16.9658 0.741585C17.1194 0.892785 17.1962 0.991185 17.2538 1.10878C17.3282 1.25758 17.333 1.28398 17.3258 1.45678C17.309 1.81918 17.0666 2.17678 16.733 2.33518C16.589 2.40478 16.5506 2.41198 16.3538 2.41198C16.1522 2.41198 16.1258 2.40478 15.9554 2.32318C15.7178 2.20558 15.545 2.02078 15.2186 1.53838C14.6978 0.772785 14.2298 0.446385 13.6058 0.412785C13.229 0.393585 12.8906 0.484785 12.4298 0.724785C12.2498 0.820785 12.221 0.827985 12.0506 0.827985C11.885 0.827985 11.8538 0.818385 11.7002 0.736785C11.009 0.362385 10.4474 0.307185 9.90499 0.561585C9.53539 0.731985 9.23539 1.02718 8.85139 1.59598C8.71699 1.79278 8.54659 2.01598 8.47219 2.09038C7.96819 2.59678 7.16659 2.49838 6.84739 1.89358C6.78739 1.77598 6.78019 1.73998 6.78019 1.52398C6.78019 1.30318 6.78739 1.26958 6.85459 1.12558C6.90979 1.01278 6.99379 0.897585 7.14979 0.736785C7.38979 0.484785 7.41379 0.419985 7.32019 0.287985C7.24819 0.187185 7.15459 0.163185 7.04179 0.215985ZM11.117 0.981585C11.393 1.07038 11.4602 1.13278 11.441 1.27918C11.4242 1.39918 11.3666 1.48558 11.273 1.52398C11.2298 1.54078 11.069 1.56718 10.9154 1.58158C10.5746 1.61518 10.3322 1.66318 9.72739 1.82158C9.47299 1.88638 9.26419 1.93438 9.26419 1.92478C9.26419 1.91758 9.30739 1.84078 9.35779 1.75438C9.62179 1.31278 9.95539 1.03438 10.349 0.923985C10.5458 0.868785 10.8362 0.890385 11.117 0.981585ZM13.8746 0.957585C14.0546 1.02478 14.3114 1.20958 14.465 1.37758C14.5706 1.49278 14.8562 1.89118 14.8562 1.92238C14.8562 1.92958 14.6114 1.87198 14.3114 1.79758C13.8098 1.67038 13.3514 1.58398 13.0034 1.54798C12.8258 1.52878 12.7178 1.45678 12.6722 1.32478C12.641 1.23118 12.641 1.22158 12.6866 1.15918C12.737 1.09198 12.9818 0.974385 13.1882 0.921585C13.361 0.875985 13.7066 0.892785 13.8746 0.957585ZM12.2594 1.79758C12.377 1.85758 12.413 1.93678 12.5138 2.36878C12.7034 3.17998 12.7298 3.39838 12.6578 3.60478C12.5498 3.92398 12.1898 4.08718 11.825 3.98638C11.6906 3.94798 11.5202 3.80398 11.4602 3.67918C11.3738 3.49918 11.4506 2.79118 11.6138 2.25838C11.6522 2.13118 11.6906 1.98958 11.7002 1.94398C11.7098 1.89838 11.7386 1.83598 11.7674 1.80478C11.8106 1.75918 11.8418 1.75198 11.993 1.75198C12.1202 1.75198 12.1946 1.76398 12.2594 1.79758ZM11.1074 2.20318C11.1266 2.54878 10.9538 2.90878 10.6898 3.06238C10.529 3.15598 10.3562 3.20878 10.0202 3.26398C9.41779 3.35998 8.86579 3.53758 8.26819 3.83038C7.95139 3.98398 7.40899 4.29598 7.12819 4.48798C6.90979 4.63678 6.77779 4.67758 6.51139 4.67998C6.22819 4.67998 6.07699 4.64638 5.87299 4.54318C5.72659 4.46398 5.67139 4.41118 5.28019 3.96238C5.04499 3.69118 4.85539 3.46558 4.85779 3.46078C4.86259 3.45838 4.89619 3.46558 4.93459 3.48238C5.29459 3.61918 6.01699 3.65278 6.48019 3.55438C6.86899 3.47278 7.19059 3.35278 7.75459 3.08158C8.54419 2.70478 9.05779 2.50558 9.74899 2.31358C10.205 2.18638 10.8146 2.06638 10.9682 2.07118L11.1002 2.07598L11.1074 2.20318ZM14.0018 2.21998C14.6594 2.38798 15.0122 2.49598 15.3578 2.63278C15.653 2.74798 15.749 2.79598 16.4402 3.14878C17.141 3.50878 17.5226 3.61198 18.1442 3.61198C18.5402 3.61198 18.7922 3.57598 19.0394 3.48958C19.0922 3.47038 19.1402 3.46078 19.1474 3.46798C19.1618 3.47998 18.6482 4.07998 18.4754 4.24798C18.0314 4.68478 17.5874 4.76398 17.0594 4.49758C16.9658 4.44958 16.757 4.33198 16.5986 4.23598C15.677 3.68158 14.9114 3.39358 13.7834 3.17998C13.2674 3.08158 13.0826 2.89438 13.0322 2.41438C13.0202 2.28478 13.001 2.16958 12.9938 2.15758C12.9866 2.14318 12.9866 2.11678 12.9938 2.09518C13.0226 2.02078 13.4234 2.07118 14.0018 2.21998ZM13.6562 3.64798C14.6978 3.84478 15.6218 4.20718 16.553 4.78558C16.757 4.91278 16.7786 4.93198 16.8482 5.07118C16.9778 5.33758 16.997 5.76958 16.889 6.02398C16.8722 6.06958 16.4714 6.54718 16.0034 7.08238C15.533 7.61998 15.137 8.08078 15.1226 8.10718C15.1082 8.13358 15.0962 8.18878 15.0962 8.22478C15.0962 8.34478 15.2882 8.48638 15.4058 8.45518C15.4346 8.44798 15.8498 7.99678 16.3298 7.45198C16.8122 6.90718 17.2322 6.43918 17.2682 6.41278C17.3954 6.31198 17.5586 6.27598 17.8802 6.27598C18.2858 6.27598 18.377 6.31918 18.617 6.61678C19.5338 7.75678 20.1578 9.11998 20.3666 10.4328C20.4194 10.7784 20.4026 10.824 20.1602 10.956C19.9514 11.0712 19.8458 11.1864 19.733 11.424C19.6274 11.6496 19.5938 11.688 19.5098 11.688C19.4186 11.688 19.3682 11.6304 19.3682 11.5248C19.3682 11.3616 19.2938 10.7904 19.2362 10.5C19.001 9.32398 18.5258 8.33038 17.7098 7.30558C17.4458 6.97198 17.3426 6.91438 17.1842 6.99598C17.1002 7.03918 17.0642 7.09918 17.0642 7.19758C17.0642 7.26958 17.141 7.38238 17.4218 7.72798C17.6162 7.96798 17.933 8.45278 18.0938 8.75998C18.4754 9.48958 18.7034 10.296 18.7634 11.1216L18.7826 11.352L18.3146 10.8672C17.4434 9.95998 16.3586 8.88238 16.289 8.85358C16.2266 8.82718 16.205 8.82958 16.1306 8.87038C16.0802 8.89678 16.0274 8.95198 16.001 9.00478C15.9626 9.08158 15.9626 9.10078 15.9914 9.17278C16.013 9.22078 16.5242 9.75118 17.297 10.524C17.9978 11.2248 18.581 11.82 18.5954 11.8488C18.6434 11.9376 18.629 12.036 18.557 12.1224C18.5186 12.168 17.069 13.62 15.3338 15.3504C13.1234 17.556 12.161 18.504 12.113 18.5136C12.0722 18.5232 12.017 18.516 11.969 18.492C11.8514 18.4368 5.52739 12.0984 5.50579 12.0168C5.49859 11.9808 5.49859 11.9256 5.50579 11.8944C5.51299 11.8608 6.06739 11.2896 6.82819 10.5312C8.09539 9.26878 8.13619 9.22558 8.13619 9.13678C8.13619 9.00718 8.00899 8.87038 7.88659 8.87038C7.80259 8.87038 7.74499 8.92318 6.56419 10.104C5.37859 11.2896 5.33059 11.3352 5.31379 11.2704C5.25139 11.0208 5.44339 10.1472 5.70499 9.47998C5.97139 8.80558 6.36979 8.14078 6.88099 7.51678C7.25059 7.06558 7.38019 7.04638 7.64419 7.39678C7.91059 7.74718 8.50579 8.39518 8.59939 8.43598C8.69779 8.47678 8.77459 8.45518 8.85619 8.35918C8.98579 8.21038 8.96419 8.16478 8.52499 7.66078C7.74019 6.76318 7.74739 6.77038 7.76179 6.71038C7.79059 6.59278 8.46499 6.13918 9.02419 5.85838C9.47299 5.63518 9.88099 5.48158 10.3394 5.36638C10.6514 5.28718 11.2562 5.18398 11.4002 5.18398C11.4482 5.18398 11.2754 5.36878 10.4834 6.16078C9.94099 6.70558 9.49459 7.17118 9.48019 7.20958C9.44659 7.29838 9.46819 7.36078 9.55939 7.45678C9.61459 7.51678 9.65539 7.53598 9.71539 7.53598C9.78739 7.53598 9.85459 7.47838 10.433 6.91678C10.7834 6.57838 11.249 6.11758 11.465 5.89198C11.6834 5.66878 11.8898 5.46478 11.9258 5.44318C12.005 5.38798 12.1154 5.38798 12.1922 5.44318C12.2258 5.46478 12.6962 5.93038 13.2362 6.47518C14.3546 7.59838 14.3114 7.56718 14.4914 7.40638C14.6618 7.25038 14.645 7.11118 14.4314 6.94798C14.3138 6.85918 12.641 5.20798 12.653 5.19598C12.6578 5.19118 12.7754 5.19598 12.9146 5.20798C13.8074 5.27998 14.585 5.54878 15.605 6.13438C15.797 6.24718 15.9938 6.34558 16.0418 6.35278C16.1162 6.36478 16.1378 6.35518 16.2122 6.28078C16.3898 6.10318 16.301 5.96878 15.821 5.68078C14.8994 5.13118 13.901 4.80238 12.7418 4.67038C12.2714 4.61518 12.2738 4.61998 12.4946 4.47598C12.7442 4.31038 13.025 4.01518 13.133 3.79918C13.2506 3.56398 13.2458 3.56878 13.3178 3.58318C13.3514 3.59038 13.505 3.61918 13.6562 3.64798ZM10.901 3.64798C10.9346 3.67198 10.985 3.75838 11.0138 3.83518C11.1026 4.07998 11.2538 4.23118 11.6354 4.45678C11.7578 4.52878 11.8562 4.59358 11.849 4.59838C11.8442 4.60318 11.6354 4.63438 11.3858 4.66798C10.3634 4.80718 9.68659 4.99438 8.92099 5.34958C8.48899 5.54878 7.73539 6.02158 7.56259 6.20158C7.45219 6.31438 7.37539 6.31438 7.25299 6.20638C7.20259 6.16078 7.14019 6.08398 7.11619 6.03838C7.07299 5.96158 7.07299 5.94958 7.10899 5.85838C7.14019 5.78158 7.14499 5.70958 7.13539 5.53438C7.12339 5.33038 7.12579 5.29918 7.18099 5.17918C7.29379 4.93678 7.42579 4.83598 8.08819 4.49278C8.93779 4.05118 9.71299 3.77758 10.5002 3.63838C10.7666 3.59038 10.8314 3.59278 10.901 3.64798ZM19.4978 4.07998C19.3802 4.87438 19.577 5.49838 20.2682 6.52558C20.7602 7.25758 21.0314 7.74238 21.3146 8.40238C21.5834 9.03598 21.7826 9.70798 21.8882 10.344C21.9314 10.608 21.9842 11.0904 21.9722 11.1072C21.9698 11.1096 21.8834 11.0904 21.7778 11.064C21.353 10.956 21.0626 10.7328 20.8946 10.3872C20.8058 10.2024 20.7674 10.0656 20.6522 9.52798C20.4098 8.39518 19.8794 7.38478 18.8978 6.17998C18.5138 5.70958 18.473 5.13358 18.7874 4.67038C18.8762 4.54078 19.5098 3.83038 19.5242 3.84478C19.529 3.84958 19.517 3.95518 19.4978 4.07998ZM5.30179 4.70398C5.45539 4.92238 5.52019 5.09998 5.53699 5.32798C5.56339 5.68078 5.49859 5.84158 5.16019 6.26398C4.38499 7.22878 3.83299 8.27758 3.50659 9.39118C3.41539 9.70078 3.28819 10.2744 3.24979 10.5456C3.22099 10.7568 3.15859 10.8 2.60419 10.9776C2.34019 11.064 2.12419 11.1312 2.12179 11.1288C2.11459 11.1144 2.16499 10.6224 2.20819 10.32C2.33779 9.41038 2.62339 8.50558 3.04819 7.65598C3.28819 7.17838 3.43939 6.93598 4.03219 6.08398C4.25059 5.77198 4.40419 5.45998 4.48099 5.16718C4.53619 4.96078 4.54339 4.88398 4.54579 4.52398C4.54819 4.29838 4.53859 4.05598 4.52899 3.98398L4.51219 3.85198L4.84579 4.19278C5.02819 4.37758 5.23459 4.60798 5.30179 4.70398ZM17.9954 5.13598C18.2018 5.26318 18.173 5.65678 17.9498 5.77438C17.8346 5.83198 17.6138 5.81278 17.5298 5.73358C17.345 5.56318 17.369 5.22958 17.573 5.12878C17.6858 5.07118 17.897 5.07598 17.9954 5.13598ZM6.47059 5.18158C6.61459 5.24638 6.67219 5.34238 6.67219 5.50798C6.67219 5.75278 6.54979 5.87038 6.29539 5.86558C6.14659 5.86558 6.05779 5.81278 5.99539 5.68558C5.90419 5.50798 5.96179 5.29678 6.12979 5.19598C6.24739 5.12398 6.33859 5.12158 6.47059 5.18158ZM6.33379 6.38158C6.98419 6.53038 6.99139 6.58078 6.43219 7.28398C5.97859 7.85518 5.66899 8.34718 5.40739 8.91358C5.09539 9.59758 4.87699 10.3872 4.78819 11.16C4.73539 11.6064 4.73779 11.5992 4.68259 11.6664L4.63699 11.7216L4.56019 11.568C4.38019 11.208 4.18099 10.9992 3.88099 10.86C3.71539 10.7808 3.70099 10.7424 3.74179 10.488C3.85459 9.81838 4.13539 8.94958 4.46659 8.25598C4.74979 7.66318 5.34019 6.76558 5.67139 6.42478C5.77459 6.31918 5.79139 6.31198 5.90179 6.31198C5.96659 6.31198 6.16099 6.34318 6.33379 6.38158ZM3.73939 11.3424C3.96259 11.4528 4.08739 11.6616 4.08739 11.928C4.08739 12.1896 3.98899 12.3528 3.75619 12.4752C3.64579 12.5352 3.61219 12.54 3.37219 12.54C3.13699 12.5376 3.08179 12.528 2.87539 12.4584C2.74579 12.4152 2.55619 12.3312 2.45539 12.2736C2.04499 12.0432 2.01139 11.8632 2.33539 11.6472C2.68579 11.412 3.06499 11.2872 3.43459 11.2824C3.58339 11.28 3.63619 11.2896 3.73939 11.3424ZM21.1202 11.328C21.4058 11.3976 21.7418 11.5656 21.9026 11.7216C22.085 11.8968 22.0706 12.0096 21.845 12.18C21.497 12.4488 20.8778 12.6144 20.5634 12.528C20.2898 12.4512 20.105 12.2064 20.1074 11.9208C20.1098 11.736 20.1482 11.6304 20.273 11.496C20.465 11.2824 20.7146 11.232 21.1202 11.328ZM19.6178 12.2376C19.6418 12.264 19.6898 12.348 19.7282 12.4248C19.8434 12.6648 19.9298 12.7608 20.1002 12.8424C20.273 12.924 20.3378 12.9912 20.381 13.1328C20.405 13.2144 20.4002 13.2744 20.357 13.512C20.1482 14.6424 19.5842 15.9288 18.8546 16.9296C18.6578 17.2008 18.5474 17.3088 18.4178 17.364C18.3698 17.3832 18.1898 17.4096 18.017 17.424C17.7242 17.448 17.0258 17.5272 16.8626 17.556C16.8074 17.5656 16.8602 17.5032 17.177 17.1888C17.7362 16.6344 18.1226 16.1256 18.4994 15.444C18.9842 14.5656 19.3154 13.4328 19.3562 12.5064C19.3658 12.3072 19.373 12.2712 19.4186 12.2328C19.4858 12.18 19.5674 12.18 19.6178 12.2376ZM4.81459 13.176C5.12899 14.7792 5.87779 16.152 7.05379 17.2848C7.29139 17.5152 7.33219 17.5656 7.27939 17.556C7.21939 17.544 6.31459 17.4504 5.88019 17.4096C5.67619 17.3904 5.61859 17.3568 5.47459 17.184C4.84579 16.4304 4.26499 15.3096 3.96019 14.2632C3.85219 13.8984 3.72019 13.2912 3.72019 13.1664C3.72019 13.0728 3.74419 13.0488 3.93859 12.9576C4.11859 12.8712 4.32739 12.6744 4.51939 12.4104L4.66819 12.2088L4.70899 12.5304C4.73059 12.708 4.77859 12.9984 4.81459 13.176ZM21.9914 12.9888C21.8378 14.4048 21.3482 15.828 20.5802 17.076C20.3186 17.5008 20.2538 17.5704 20.093 17.5872C19.949 17.5992 19.4666 17.4936 19.349 17.424C19.2122 17.34 19.229 17.2896 19.613 16.68C20.2322 15.6984 20.5682 14.8728 20.7842 13.8072C20.8226 13.608 20.8778 13.392 20.9042 13.3296C21.0146 13.0728 21.197 12.9408 21.5042 12.888C21.5906 12.8736 21.737 12.8256 21.8282 12.78C21.9218 12.7368 22.0034 12.6984 22.0106 12.6984C22.0178 12.696 22.0082 12.828 21.9914 12.9888ZM2.67619 12.8928C2.93779 12.9792 3.12979 13.056 3.16339 13.0896C3.20659 13.1328 3.23059 13.2168 3.29059 13.536C3.52579 14.8152 3.95299 15.852 4.69699 16.9512C5.01859 17.4264 5.01379 17.4432 4.52179 17.508C3.90259 17.5896 3.84259 17.5584 3.48739 16.968C2.80099 15.828 2.36419 14.616 2.17459 13.32C2.12899 13.0104 2.14579 12.708 2.20579 12.732C2.22739 12.7416 2.43859 12.8136 2.67619 12.8928ZM8.78659 16.1856L11.2922 18.7008L10.9082 18.6888C10.4954 18.6744 10.2698 18.6336 9.89299 18.5064C9.28099 18.3024 8.56819 17.8944 7.93219 17.3856C7.59379 17.1144 6.95779 16.4784 6.68659 16.14C6.18739 15.5184 5.72659 14.712 5.53219 14.1288C5.39059 13.704 5.34979 13.4904 5.33539 13.08L5.32339 12.708L5.80099 13.188C6.06499 13.452 7.40659 14.8008 8.78659 16.1856ZM18.7562 13.2816C18.6386 14.0952 18.3098 14.9256 17.813 15.672C17.5106 16.1232 17.3258 16.3488 16.9226 16.7544C16.3322 17.3448 15.7874 17.7384 15.0674 18.096C14.393 18.4296 13.7186 18.6264 13.1282 18.6624L12.8762 18.6792L15.8282 15.7176L18.7802 12.756L18.7874 12.8856C18.7922 12.9576 18.7778 13.1352 18.7562 13.2816ZM6.37219 17.94C6.98419 18.012 7.62019 18.1416 8.08819 18.2928C8.25379 18.3456 8.68579 18.5016 9.04819 18.6384C10.049 19.0128 10.4738 19.128 11.1602 19.212C11.3378 19.2336 11.5322 19.2552 11.5898 19.2624C11.6546 19.272 11.7146 19.296 11.7506 19.332L11.8082 19.3896V20.0256C11.8082 20.6304 11.8058 20.664 11.7626 20.688C11.6834 20.7288 11.6426 20.7168 11.525 20.6064C11.3546 20.4504 10.9226 20.1288 10.5746 19.9008C9.44419 19.1592 8.22739 18.72 6.96019 18.5976C6.52819 18.5568 5.88499 18.5808 5.44099 18.6576C4.84579 18.7584 4.77859 18.7248 4.31299 18.1032C4.29859 18.084 4.32019 18.0672 4.38499 18.0504C4.52419 18.0096 4.81939 17.952 4.99219 17.9304C5.25859 17.8968 6.03859 17.9016 6.37219 17.94ZM19.1642 17.94C19.5242 17.9808 19.673 18.012 19.7378 18.06C19.7834 18.096 19.7834 18.0984 19.7282 18.2136C19.6586 18.3624 19.517 18.5088 19.3706 18.5808C19.2722 18.6312 19.2266 18.636 18.9122 18.636C18.7202 18.636 18.3746 18.6216 18.1418 18.6048C16.7474 18.4968 15.2594 18.8784 13.9082 19.6896C13.5002 19.9368 12.9242 20.3472 12.7058 20.5488C12.5138 20.7288 12.4274 20.7552 12.3338 20.6616C12.2858 20.6136 12.2858 20.5944 12.2978 20.1168C12.3026 19.836 12.3218 19.584 12.3362 19.536C12.4034 19.3344 12.5618 19.2648 13.1282 19.188C13.7378 19.104 14.2778 18.948 15.2138 18.588C16.1834 18.216 16.8602 18.036 17.6402 17.9424C18.0194 17.8968 18.7802 17.8968 19.1642 17.94ZM6.84019 19.08C8.27539 19.2096 9.54019 19.7184 10.853 20.6952C11.2394 20.9832 11.3114 21.1248 11.165 21.3264C11.033 21.5064 11.0426 21.5064 10.8074 21.3C9.97699 20.5704 9.06739 20.0784 8.13619 19.8528C7.56979 19.7136 7.24819 19.6704 6.85219 19.6776C5.96899 19.692 6.05299 19.6992 5.87299 19.6128C5.75779 19.56 5.65699 19.4856 5.54179 19.3704C5.45059 19.2792 5.37619 19.1952 5.37619 19.1808C5.37619 19.1544 5.59459 19.1112 5.86819 19.08C6.12019 19.0536 6.53059 19.0536 6.84019 19.08ZM18.5258 19.1064C18.593 19.1208 18.6722 19.152 18.701 19.1736L18.7538 19.2168L18.6458 19.3224C18.4994 19.4712 18.3338 19.5792 18.173 19.6368C18.0506 19.68 17.969 19.6872 17.4242 19.6896C16.9826 19.6944 16.7378 19.7064 16.5482 19.7376C15.377 19.9224 14.3786 20.4072 13.349 21.2976L13.1018 21.5112L13.0202 21.432C12.9746 21.3864 12.9242 21.3144 12.9098 21.2712C12.8546 21.0984 12.941 20.9688 13.2938 20.7024C14.4938 19.7976 15.7178 19.2744 17.0018 19.1184C17.3282 19.0776 18.3602 19.0704 18.5258 19.1064ZM7.66579 20.2704C8.27059 20.3568 8.85859 20.5728 9.46099 20.9304C9.79459 21.1272 10.4402 21.6048 10.3946 21.6192C10.3754 21.6264 10.2626 21.6168 10.1426 21.6C9.47539 21.5088 8.46979 21.1632 7.65619 20.7456C7.30819 20.5656 6.83539 20.2752 6.82099 20.232C6.80659 20.1936 7.29859 20.2152 7.66579 20.2704ZM17.3042 20.2416C17.3042 20.2632 16.7354 20.6112 16.4882 20.7432C15.845 21.0864 15.053 21.3648 14.249 21.5304C13.8074 21.6192 13.7906 21.6192 13.8962 21.528C14.0882 21.3624 14.5226 21.0432 14.7242 20.9208C15.2906 20.5776 15.8666 20.3664 16.4882 20.2704C16.697 20.2392 17.3042 20.2176 17.3042 20.2416ZM12.125 21.1656C12.2474 21.2112 12.4298 21.4104 12.521 21.5952C12.6098 21.7704 12.6122 21.7872 12.6122 22.0296C12.6122 22.272 12.6074 22.2936 12.5258 22.464C12.3914 22.7472 12.1202 22.9848 12.0002 22.92C11.9282 22.8816 11.7218 22.6128 11.6306 22.44C11.5154 22.2216 11.4626 22.0272 11.4818 21.8904C11.513 21.6552 11.6954 21.372 11.9138 21.2112C12.0146 21.1392 12.041 21.132 12.125 21.1656ZM4.43059 22.5624C4.62019 22.6536 4.68979 22.92 4.56739 23.0856C4.47859 23.2008 4.39699 23.244 4.26499 23.2416C4.02739 23.2392 3.90499 23.1168 3.90499 22.884C3.90499 22.7184 3.96259 22.6152 4.08739 22.5576C4.21699 22.5 4.30579 22.5 4.43059 22.5624ZM20.1026 22.5912C20.2442 22.7208 20.2586 22.968 20.1314 23.1048C19.8914 23.3664 19.4882 23.2128 19.4882 22.86C19.4882 22.6296 19.6178 22.5144 19.8794 22.512C20.0018 22.512 20.0258 22.5216 20.1026 22.5912Z" fill="black"/>
<path d="M17.9232 6.71278C17.7816 6.86158 17.8032 6.93358 18.1128 7.31518C18.7776 8.13358 19.2192 9.05278 19.3896 9.95998C19.4592 10.332 19.4832 10.4112 19.5384 10.4664C19.6008 10.5288 19.7736 10.5288 19.8504 10.4664C20.0496 10.3056 19.7784 9.16798 19.3368 8.28958C19.0896 7.80238 18.612 7.10398 18.3048 6.78478C18.1872 6.66478 18.1608 6.64798 18.0792 6.64798C18.0072 6.64798 17.9688 6.66478 17.9232 6.71278Z" fill="black"/>
<path d="M11.7484 9.53757C11.0668 9.69357 10.5436 10.1448 10.3564 10.7352C10.2532 11.0616 10.2196 11.3088 10.2076 11.8368C10.198 12.2136 10.2052 12.4248 10.2364 12.7008C10.2892 13.164 10.342 13.3728 10.474 13.644C10.8364 14.3784 11.6476 14.7072 12.6124 14.508C13.4284 14.34 13.7404 13.872 13.762 12.78C13.7668 12.5544 13.7812 12.348 13.7956 12.3216C13.8388 12.2376 13.9132 12.1896 14.098 12.12C14.1964 12.084 14.3284 12.024 14.386 11.9904C14.5372 11.9016 14.7916 11.64 14.8564 11.508C14.902 11.412 14.9068 11.388 14.8804 11.3256C14.842 11.2368 14.77 11.184 14.6836 11.184C14.6332 11.184 14.5708 11.2296 14.4196 11.3808C14.122 11.676 13.8532 11.796 13.3444 11.856C12.7036 11.9328 12.514 12.012 12.19 12.3432C11.8684 12.6744 11.8228 12.804 11.9812 12.9576C12.1228 13.0944 12.2044 13.068 12.3604 12.8328C12.5332 12.5712 12.8428 12.336 13.0084 12.336C13.0876 12.336 13.1764 12.372 13.2052 12.4176C13.2316 12.4536 13.2028 13.3536 13.1716 13.4928C13.1188 13.74 12.9076 13.9392 12.5668 14.0592C12.3316 14.1432 11.9668 14.1456 11.7364 14.0664C11.2804 13.908 10.942 13.5432 10.8364 13.1016C10.7836 12.876 10.7836 11.1936 10.8364 10.9704C10.8964 10.7232 11.0092 10.5192 11.1844 10.3416C11.4628 10.0608 11.8012 9.94077 12.2452 9.96477C12.6652 9.98877 12.9268 10.1976 13.1644 10.692C13.3132 11.004 13.3636 11.0544 13.5148 11.0328C13.714 11.0064 13.7956 10.8504 13.738 10.6032C13.6276 10.1352 13.2628 9.76557 12.7324 9.58557C12.5692 9.53037 12.4924 9.51837 12.2164 9.51357C12.0004 9.50637 11.8444 9.51597 11.7484 9.53757Z" fill="black"/>
<path d="M5.89437 6.74397C5.60637 7.01037 5.12157 7.71597 4.83837 8.27997C4.54077 8.87517 4.32237 9.54477 4.24557 10.0944C4.19997 10.4184 4.25277 10.5144 4.47117 10.5168C4.64397 10.5192 4.66797 10.4688 4.78797 9.83997C4.83837 9.58077 5.00637 9.07437 5.14797 8.76237C5.36397 8.28237 5.68797 7.75437 6.01677 7.34637C6.30477 6.99117 6.32157 6.96477 6.32157 6.87117C6.32157 6.80637 6.30477 6.77037 6.24477 6.71757C6.12957 6.61437 6.02637 6.62157 5.89437 6.74397Z" fill="black"/>
<path d="M0.506633 0.23996C0.389033 0.26876 0.341033 0.33116 0.309833 0.49196C0.269033 0.71036 0.290633 1.31996 0.343433 1.39916C0.396233 1.47836 0.523433 1.51676 0.638633 1.48556C0.756233 1.45196 0.801833 1.34156 0.782633 1.12796C0.768233 0.94076 0.801833 0.82796 0.895433 0.75836C0.955433 0.71276 0.989033 0.71036 1.35143 0.71756C1.56503 0.71996 1.84343 0.71516 1.96823 0.70556C2.17223 0.69116 2.20103 0.68396 2.26103 0.62156C2.35463 0.53036 2.35223 0.41276 2.25863 0.30716L2.18903 0.22796L1.38743 0.22316C0.948233 0.22076 0.552233 0.22796 0.506633 0.23996Z" fill="black"/>
<path d="M18.3915 0.24237C18.2307 0.29037 18.1851 0.49917 18.3075 0.62397C18.3627 0.67917 18.4059 0.69357 18.5307 0.70797C18.6147 0.71517 19.3011 0.71997 20.0571 0.71517C21.4059 0.70797 21.4299 0.70797 21.4971 0.65757C21.6531 0.54237 21.6171 0.29037 21.4395 0.24237C21.3243 0.20877 18.5019 0.21117 18.3915 0.24237Z" fill="black"/>
<path d="M22.0011 0.23996C21.9027 0.26876 21.8691 0.30716 21.8427 0.40076C21.8115 0.51356 21.8499 0.61436 21.9459 0.66716C22.0083 0.70076 22.1019 0.70796 22.5723 0.70796C23.0811 0.70796 23.1315 0.71276 23.2083 0.75836C23.3331 0.83036 23.3763 0.93596 23.3763 1.17116C23.3763 1.28156 23.3883 1.39196 23.4003 1.41596C23.4411 1.49036 23.5899 1.52396 23.6931 1.48076C23.7675 1.44956 23.7867 1.42556 23.8179 1.32236C23.8371 1.25516 23.8659 1.09436 23.8827 0.96476C23.9187 0.66956 23.8803 0.50396 23.7483 0.38636C23.5923 0.24956 23.4867 0.23276 22.7403 0.22556C22.3707 0.22076 22.0371 0.22796 22.0011 0.23996Z" fill="black"/>
<path d="M2.78414 0.266382C2.67854 0.309582 2.64014 0.362382 2.64014 0.460782C2.64014 0.580782 2.67134 0.638382 2.76014 0.683982C2.86334 0.736782 5.77454 0.739182 5.87774 0.683982C6.00974 0.616782 6.03614 0.398382 5.92574 0.297582C5.87774 0.254382 5.80814 0.251982 4.35854 0.247182C3.38894 0.244782 2.82254 0.251982 2.78414 0.266382Z" fill="black"/>
<path d="M7.60801 0.808759C7.44481 0.868759 7.26001 1.06556 7.21201 1.23116C7.14241 1.46876 7.22161 1.73036 7.40641 1.89356C7.58881 2.05196 7.88401 2.09516 8.09761 1.99436C8.30161 1.89356 8.47201 1.63196 8.47201 1.41596C8.47201 1.20476 8.30161 0.935959 8.10481 0.835159C7.97281 0.767959 7.74961 0.755959 7.60801 0.808759ZM7.97041 1.26956C8.06401 1.36556 8.06401 1.46636 7.96801 1.56476C7.90321 1.62716 7.88401 1.63436 7.80481 1.61996C7.69201 1.60076 7.63921 1.54796 7.62001 1.43516C7.60561 1.35596 7.61281 1.33676 7.67521 1.27196C7.77361 1.17596 7.87441 1.17596 7.97041 1.26956Z" fill="black"/>
<path d="M16.1595 0.806358C15.8955 0.902358 15.6987 1.19996 15.7323 1.45196C15.7659 1.71836 15.9267 1.93676 16.1331 2.00636C16.2819 2.05436 16.4979 2.05436 16.6155 2.00636C16.7355 1.95356 16.8891 1.81196 16.9515 1.69436C17.0211 1.56476 17.0235 1.27676 16.9587 1.15196C16.8963 1.03436 16.7571 0.892758 16.6443 0.835158C16.5195 0.770358 16.2915 0.755958 16.1595 0.806358ZM16.4811 1.30076C16.5555 1.37036 16.5531 1.47116 16.4739 1.53356C16.3899 1.59836 16.3323 1.59596 16.2603 1.52396C16.1859 1.45196 16.1835 1.37516 16.2531 1.30316C16.3179 1.23356 16.4091 1.23356 16.4811 1.30076Z" fill="black"/>
<path d="M2.40023 0.943202C2.19863 1.0128 2.21303 1.308 2.42183 1.3704C2.49383 1.392 2.52743 1.392 2.58263 1.3656C2.71463 1.3008 2.75543 1.1064 2.65943 1.0008C2.58983 0.926402 2.50823 0.907202 2.40023 0.943202Z" fill="black"/>
<path d="M21.4372 0.940803C21.2644 0.988803 21.2476 1.272 21.4132 1.3584C21.5716 1.44 21.7564 1.3272 21.7564 1.1496C21.7564 0.988803 21.6076 0.890403 21.4372 0.940803Z" fill="black"/>
<path d="M1.87445 1.69199C1.72085 1.73519 1.61045 1.79999 1.47125 1.92719C1.26005 2.12159 1.14965 2.37839 1.15445 2.67359C1.15685 2.91119 1.19525 3.02159 1.29605 3.09119C1.37045 3.14159 1.40165 3.14639 1.56005 3.13919C1.77605 3.12479 1.89845 3.06959 2.07605 2.90159C2.30645 2.68559 2.41685 2.39759 2.38805 2.09039C2.36885 1.87679 2.33045 1.76879 2.25125 1.71839C2.16725 1.66319 2.01845 1.65359 1.87445 1.69199Z" fill="black"/>
<path d="M21.9601 1.68719C21.8377 1.73039 21.7849 1.84079 21.7729 2.07359C21.7489 2.51759 21.9505 2.88479 22.3105 3.06239C22.4809 3.14399 22.7305 3.16799 22.8433 3.11039C22.9417 3.05999 22.9657 3.01199 22.9921 2.79359C23.0377 2.44319 22.9297 2.14319 22.6753 1.90799C22.4689 1.71839 22.1521 1.61999 21.9601 1.68719Z" fill="black"/>
<path d="M1.53363 6.20156C1.11603 6.35036 0.912034 6.79676 1.09203 7.16636C1.31043 7.61276 1.91523 7.70156 2.24883 7.33676C2.41203 7.15916 2.46243 6.90716 2.38563 6.64796C2.33283 6.46796 2.12403 6.25916 1.94403 6.20636C1.79043 6.16076 1.65123 6.15836 1.53363 6.20156ZM1.91043 6.68156C1.98003 6.75116 1.99203 6.77996 1.99203 6.87116C1.99203 7.00316 1.92723 7.09196 1.80963 7.12556C1.58403 7.18796 1.38723 6.98636 1.47363 6.78236C1.51683 6.68156 1.63683 6.59996 1.74963 6.59996C1.80723 6.59996 1.85043 6.62156 1.91043 6.68156Z" fill="black"/>
<path d="M22.0921 6.2088C21.9169 6.2688 21.7129 6.4776 21.6625 6.648C21.6097 6.8232 21.6145 6.9552 21.6745 7.1184C21.7321 7.2744 21.8737 7.428 22.0201 7.5C22.1569 7.5648 22.4041 7.5768 22.5625 7.524C22.7377 7.464 22.9225 7.2816 22.9801 7.1064C23.0329 6.9432 23.0209 6.7008 22.9489 6.564C22.8841 6.4368 22.7449 6.3 22.6153 6.2376C22.4713 6.168 22.2481 6.156 22.0921 6.2088ZM22.5025 6.6816C22.5721 6.7512 22.5841 6.78 22.5841 6.876C22.5841 6.9672 22.5721 7.0008 22.5145 7.0584C22.4281 7.1424 22.3009 7.1592 22.1809 7.0968C22.0561 7.0368 22.0177 6.8256 22.1065 6.7104C22.2145 6.5736 22.3825 6.5616 22.5025 6.6816Z" fill="black"/>
<path d="M0.367363 8.62798C0.336163 8.64958 0.307363 8.70958 0.290563 8.78398C0.273763 8.86798 0.264163 9.59038 0.264163 11.0064C0.264163 13.2912 0.261763 13.2456 0.396163 13.296C0.499363 13.3344 0.592963 13.3224 0.664963 13.2624L0.732163 13.2048L0.739363 11.268L0.744163 9.33358L0.823363 9.34798C1.05856 9.38878 1.39456 9.43198 1.48336 9.43198C1.62496 9.43198 1.72816 9.33358 1.72816 9.19918C1.72576 9.03598 1.65376 8.98318 1.36096 8.93998C1.09936 8.90158 0.993763 8.86318 0.744163 8.72158C0.528163 8.59918 0.439363 8.57758 0.367363 8.62798Z" fill="black"/>
<path d="M23.4724 8.65196C23.1052 8.85836 22.9516 8.91596 22.6828 8.94956C22.4884 8.97356 22.4308 9.01196 22.3948 9.13436C22.3684 9.23276 22.414 9.36236 22.4884 9.40076C22.5676 9.44156 22.7044 9.43676 23.0572 9.38636L23.3524 9.34556L23.3572 11.2728C23.3644 13.1952 23.3644 13.2 23.4148 13.248C23.5228 13.3584 23.7892 13.32 23.8204 13.1928C23.8276 13.164 23.83 12.1488 23.8276 10.9392C23.8204 8.74796 23.8204 8.73836 23.77 8.67116C23.7028 8.57996 23.6092 8.57516 23.4724 8.65196Z" fill="black"/>
<path d="M23.5444 13.6488C23.3932 13.704 23.3452 13.9152 23.4604 14.028C23.5396 14.1096 23.7052 14.112 23.7772 14.0328C23.8492 13.956 23.8636 13.884 23.8324 13.7856C23.794 13.6728 23.6572 13.608 23.5444 13.6488Z" fill="black"/>
<path d="M0.357558 13.68C0.251958 13.74 0.242358 13.9656 0.338358 14.0544C0.400758 14.1096 0.573558 14.1168 0.635958 14.064C0.760758 13.9608 0.753558 13.7592 0.621558 13.692C0.544758 13.6512 0.415158 13.6464 0.357558 13.68Z" fill="black"/>
<path d="M0.39376 14.3496C0.31216 14.3856 0.26416 14.472 0.26416 14.5848C0.26416 14.7744 0.36976 14.8224 0.74896 14.8032C0.95296 14.7936 0.96976 14.7888 1.02736 14.724C1.07536 14.6664 1.08256 14.6376 1.07296 14.5488C1.05376 14.3688 1.00336 14.34 0.70096 14.3352C0.55936 14.3304 0.42016 14.3376 0.39376 14.3496Z" fill="black"/>
<path d="M23.1651 14.352C23.0955 14.3808 23.0331 14.5272 23.0523 14.616C23.0595 14.652 23.0931 14.7072 23.1267 14.7384C23.1843 14.7912 23.2059 14.796 23.4435 14.7936C23.6091 14.7936 23.7339 14.7792 23.7963 14.7552L23.8923 14.7192L23.8995 14.5608L23.9067 14.4024L23.7819 14.3664C23.6427 14.3232 23.2563 14.316 23.1651 14.352Z" fill="black"/>
<path d="M0.408043 15.0072C0.259243 15.0576 0.211243 15.2736 0.321643 15.4008L0.379243 15.468H0.763243C1.13764 15.468 1.14964 15.4656 1.20964 15.4104C1.31044 15.3144 1.28884 15.1008 1.16884 15.024C1.09924 14.9808 0.528043 14.9688 0.408043 15.0072Z" fill="black"/>
<path d="M23.0665 14.9976C22.9057 15.0192 22.8481 15.0792 22.8481 15.2328C22.8481 15.3096 22.8625 15.3528 22.9033 15.3936C22.9513 15.4416 22.9897 15.4488 23.2249 15.4632C23.5105 15.48 23.7121 15.4584 23.8321 15.396C23.9017 15.36 23.9065 15.3504 23.8993 15.2448C23.8921 15.144 23.8825 15.1272 23.7889 15.06C23.6905 14.9928 23.6713 14.988 23.4409 14.9832C23.3065 14.9832 23.1385 14.988 23.0665 14.9976Z" fill="black"/>
<path d="M22.9248 15.6576C22.6392 15.6912 22.6056 15.7128 22.5912 15.8808C22.5816 15.972 22.5888 16.008 22.6272 16.056C22.6728 16.1112 22.692 16.116 23.0736 16.1376C23.4144 16.1568 23.4936 16.1544 23.6328 16.1184C23.8632 16.0632 23.904 16.0296 23.904 15.9V15.7944L23.748 15.7176C23.616 15.6528 23.5632 15.6408 23.3832 15.636C23.2656 15.6312 23.0616 15.6408 22.9248 15.6576Z" fill="black"/>
<path d="M0.544768 15.672C0.331168 15.6888 0.290368 15.7176 0.271168 15.8592C0.254368 15.9864 0.297568 16.092 0.379168 16.1256C0.460768 16.1592 1.25517 16.176 1.35597 16.1496C1.39917 16.1376 1.45197 16.1064 1.47357 16.0824C1.56237 15.984 1.54317 15.7656 1.43997 15.7032C1.38717 15.6696 0.818368 15.648 0.544768 15.672Z" fill="black"/>
<path d="M22.656 16.3464C22.3104 16.3752 22.2984 16.38 22.2576 16.476C22.1856 16.6536 22.2864 16.8 22.4856 16.8C22.5456 16.8 22.7472 16.812 22.9344 16.8288C23.328 16.86 23.5392 16.836 23.7672 16.7352L23.9064 16.6728L23.8992 16.5624L23.892 16.452L23.736 16.3944C23.604 16.3464 23.5272 16.3368 23.244 16.3296C23.0592 16.3272 22.7952 16.3344 22.656 16.3464Z" fill="black"/>
<path d="M0.37216 16.38C0.27856 16.4304 0.26416 16.4568 0.26416 16.5768C0.26416 16.6488 0.28096 16.6968 0.32176 16.7448L0.37936 16.812H1.06816H1.75696L1.81456 16.7448C1.89376 16.6536 1.89376 16.5144 1.81456 16.4232L1.75696 16.356L1.09936 16.3488C0.53776 16.344 0.43456 16.3488 0.37216 16.38Z" fill="black"/>
<path d="M22.3776 17.0136C22.068 17.0256 22.0056 17.0352 21.9648 17.0736C21.8472 17.1792 21.8904 17.3976 22.0416 17.46C22.1688 17.5128 23.5776 17.5128 23.7072 17.46C23.8512 17.3976 23.904 17.3352 23.904 17.2176V17.1144L23.7792 17.0784C23.4768 16.992 23.2704 16.9824 22.3776 17.0136Z" fill="black"/>
<path d="M0.408112 17.0328C0.256912 17.088 0.213712 17.2896 0.321712 17.4168L0.379312 17.484H1.23131H2.08331L2.14331 17.4288C2.22011 17.3544 2.24171 17.2728 2.20571 17.1672C2.15771 17.0208 2.11931 17.016 1.23131 17.0184C0.799312 17.0184 0.427312 17.0256 0.408112 17.0328Z" fill="black"/>
<path d="M1.82419 17.6832C1.71859 17.6952 1.63939 17.7384 1.60819 17.796C1.56499 17.8752 1.59379 18.0216 1.66579 18.0912C1.72099 18.1488 1.73779 18.1512 2.06899 18.156C2.25619 18.1584 2.43619 18.1512 2.46499 18.1416C2.53459 18.1152 2.61619 17.9832 2.61619 17.8968C2.61619 17.8032 2.58259 17.748 2.50339 17.7144C2.44099 17.688 1.96339 17.6664 1.82419 17.6832Z" fill="black"/>
<path d="M21.7082 17.6784C21.5138 17.7264 21.4514 17.8176 21.5066 17.9688C21.5258 18.0168 21.5714 18.0768 21.6074 18.1056C21.6698 18.1512 21.701 18.156 22.0034 18.1488C22.1834 18.1464 22.361 18.132 22.397 18.1176C22.5314 18.0648 22.553 17.8152 22.433 17.7264C22.373 17.6832 22.3274 17.676 22.061 17.6712C21.893 17.6688 21.7346 17.6736 21.7082 17.6784Z" fill="black"/>
<path d="M1.32972 18.4176C1.24332 18.504 1.22892 18.5712 1.27212 18.684C1.32012 18.8088 1.38972 18.8184 2.24412 18.8112L3.02412 18.804L3.08892 18.7368C3.18012 18.648 3.17772 18.504 3.08652 18.4104L3.02412 18.348L2.21772 18.3408L1.41372 18.3336L1.32972 18.4176Z" fill="black"/>
<path d="M21.0962 18.3528C20.9258 18.4176 20.9066 18.6864 21.065 18.7704C21.1562 18.8184 22.6682 18.8184 22.7594 18.7704C22.8818 18.7056 22.9058 18.4896 22.7978 18.3936C22.7498 18.3504 22.6946 18.348 21.9386 18.3432C21.4946 18.3408 21.1154 18.3456 21.0962 18.3528Z" fill="black"/>
<path d="M20.52 19.0152C20.3472 19.0752 20.3088 19.3152 20.4576 19.4256C20.5176 19.4712 20.5608 19.476 21.0432 19.4832C21.816 19.4976 21.936 19.4616 21.936 19.2336C21.936 19.1088 21.8856 19.0464 21.7512 19.0104C21.624 18.9744 20.628 18.9792 20.52 19.0152Z" fill="black"/>
<path d="M1.37793 19.0248C1.21713 19.056 1.15473 19.2984 1.27953 19.4064C1.36593 19.4808 1.52913 19.4856 1.61073 19.4184C1.65633 19.38 1.66833 19.3512 1.66593 19.26C1.66353 19.092 1.53873 18.9912 1.37793 19.0248Z" fill="black"/>
<path d="M2.31608 19.0296C2.23928 19.0632 2.18408 19.14 2.16728 19.2288C2.15768 19.2984 2.16728 19.3272 2.22728 19.3944L2.29928 19.476L2.92568 19.4832C3.46568 19.4904 3.56168 19.4856 3.63368 19.452C3.77768 19.3824 3.80168 19.1904 3.67928 19.0752C3.62168 19.02 3.61208 19.02 2.99288 19.0152C2.64728 19.0128 2.34248 19.02 2.31608 19.0296Z" fill="black"/>
<path d="M22.5242 19.0632C22.4762 19.1016 22.457 19.1472 22.4474 19.2264C22.4354 19.3272 22.4402 19.3416 22.5146 19.4016C22.5818 19.4592 22.6106 19.4664 22.6994 19.4568C22.8338 19.4424 22.8746 19.3992 22.889 19.2648C22.901 19.1664 22.8938 19.1472 22.829 19.08C22.7378 18.9888 22.6178 18.9816 22.5242 19.0632Z" fill="black"/>
<path d="M19.932 19.6728C19.776 19.6944 19.68 19.7328 19.6536 19.7808C19.6128 19.8552 19.6224 20.0136 19.6704 20.0664C19.7256 20.1264 19.9368 20.1648 20.2032 20.1624C20.5848 20.16 20.724 20.0952 20.724 19.9224C20.724 19.776 20.6472 19.7112 20.436 19.68C20.2704 19.656 20.0712 19.6536 19.932 19.6728Z" fill="black"/>
<path d="M3.5954 19.7016C3.4706 19.728 3.4082 19.7904 3.4082 19.8864C3.4082 20.0064 3.4466 20.0832 3.533 20.136C3.6026 20.1768 3.6554 20.184 3.9434 20.184C4.3202 20.184 4.385 20.1648 4.4498 20.028C4.505 19.9104 4.4906 19.8048 4.4114 19.7448C4.3562 19.704 4.3034 19.6968 4.0154 19.6896C3.833 19.6848 3.6434 19.692 3.5954 19.7016Z" fill="black"/>
<path d="M21.0794 19.6968C20.9162 19.728 20.8778 19.9944 21.0218 20.1048C21.0794 20.1504 21.2498 20.1432 21.3098 20.0928C21.437 19.992 21.4082 19.7568 21.2642 19.7064C21.1826 19.68 21.173 19.68 21.0794 19.6968Z" fill="black"/>
<path d="M2.78183 19.7736C2.67383 19.8816 2.69783 20.028 2.83703 20.112C2.94263 20.1768 3.00503 20.172 3.09383 20.0976C3.15863 20.0448 3.16823 20.0208 3.16823 19.92C3.16823 19.8216 3.15863 19.7952 3.10583 19.7544C3.00743 19.6776 2.87063 19.6872 2.78183 19.7736Z" fill="black"/>
</g>
<defs>
<clipPath id="clip0_5453_11391">
<rect width="24" height="24" fill="white"/>
</clipPath>
</defs>
</svg>
