<?xml version="1.0" encoding="UTF-8"?><svg xmlns="http://www.w3.org/2000/svg" xmlns:xlink="http://www.w3.org/1999/xlink" width="375" zoomAndPan="magnify" viewBox="0 0 375 374.999991" height="374.999991" preserveAspectRatio="xMidYMid meet" version="1.0"><defs><clipPath id="clip-0"><path d="M 90.902344 90.902344 L 284.402344 90.902344 L 284.402344 284.402344 L 90.902344 284.402344 Z M 90.902344 90.902344 " clip-rule="nonzero"/></clipPath></defs><g clip-path="url(#clip-0)"><path fill="rgb(74.508667%, 78.42865%, 88.62915%)" d="M 187.652344 90.902344 C 134.21875 90.902344 90.902344 134.21875 90.902344 187.652344 C 90.902344 241.085938 134.21875 284.402344 187.652344 284.402344 C 241.085938 284.402344 284.402344 241.085938 284.402344 187.652344 C 284.402344 134.21875 241.085938 90.902344 187.652344 90.902344 Z M 201.472656 256.757812 L 173.828125 256.757812 L 173.828125 229.113281 L 201.472656 229.113281 Z M 208.824219 197.324219 C 204.5 199.121094 201.472656 204.417969 201.472656 210.195312 L 201.472656 215.292969 L 173.828125 215.292969 L 173.828125 210.195312 C 173.828125 193.011719 183.40625 177.949219 198.238281 171.796875 C 204.402344 169.242188 208.382812 164.609375 208.382812 160.007812 C 208.382812 152.640625 198.695312 146.1875 187.652344 146.1875 C 176.605469 146.1875 166.917969 152.640625 166.917969 160.007812 L 139.277344 160.007812 C 139.277344 137.148438 160.976562 118.542969 187.652344 118.542969 C 214.324219 118.542969 236.027344 137.148438 236.027344 160.007812 C 236.027344 176.082031 225.605469 190.375 208.824219 197.324219 Z M 208.824219 197.324219 " fill-opacity="1" fill-rule="nonzero"/></g></svg>