<svg xmlns="http://www.w3.org/2000/svg" width="25" height="30" viewBox="0 0 25 30" fill="none">
    <mask id="mask0_5539_154" style="mask-type:alpha" maskUnits="userSpaceOnUse" x="0" y="0" width="25" height="30">
      <rect width="25" height="30" fill="#D9D9D9"/>
    </mask>
    <g mask="url(#mask0_5539_154)">
      <path d="M10.0016 21.6255L5.3766 25.1568C5.14744 25.3443 4.89744 25.4328 4.6266 25.4224C4.35577 25.412 4.11619 25.3339 3.90785 25.188C3.69952 25.0422 3.53806 24.8443 3.42348 24.5943C3.3089 24.3443 3.30369 24.0735 3.40785 23.7818L5.1891 18.0005L0.657854 14.7818C0.407854 14.6151 0.251604 14.3964 0.189104 14.1255C0.126604 13.8547 0.137021 13.6047 0.220354 13.3755C0.303688 13.1464 0.449521 12.9432 0.657854 12.7662C0.866188 12.5891 1.11619 12.5005 1.40785 12.5005H7.0016L8.8141 6.50053C8.91827 6.20887 9.07973 5.98491 9.29848 5.82866C9.51723 5.67241 9.7516 5.59428 10.0016 5.59428C10.2516 5.59428 10.486 5.67241 10.7047 5.82866C10.9235 5.98491 11.0849 6.20887 11.1891 6.50053L13.0016 12.5005H18.5954C18.887 12.5005 19.137 12.5891 19.3454 12.7662C19.5537 12.9432 19.6995 13.1464 19.7829 13.3755C19.8662 13.6047 19.8766 13.8547 19.8141 14.1255C19.7516 14.3964 19.5954 14.6151 19.3454 14.7818L14.8141 18.0005L16.5954 23.7818C16.6995 24.0735 16.6943 24.3443 16.5797 24.5943C16.4651 24.8443 16.3037 25.0422 16.0954 25.188C15.887 25.3339 15.6474 25.412 15.3766 25.4224C15.1058 25.4328 14.8558 25.3443 14.6266 25.1568L10.0016 21.6255Z" fill="#FBBF24"/>
    </g>
  </svg>