<?xml version="1.0" encoding="UTF-8"?><svg xmlns="http://www.w3.org/2000/svg" xmlns:xlink="http://www.w3.org/1999/xlink" width="375" zoomAndPan="magnify" viewBox="0 0 375 374.999991" height="374.999991" preserveAspectRatio="xMidYMid meet" version="1.0"><defs><clipPath id="clip-0"><path d="M 92.089844 80.746094 L 160 80.746094 L 160 149 L 92.089844 149 Z M 92.089844 80.746094 " clip-rule="nonzero"/></clipPath><clipPath id="clip-1"><path d="M 165 80.746094 L 234 80.746094 L 234 149 L 165 149 Z M 165 80.746094 " clip-rule="nonzero"/></clipPath><clipPath id="clip-2"><path d="M 99 152 L 282.589844 152 L 282.589844 294.496094 L 99 294.496094 Z M 99 152 " clip-rule="nonzero"/></clipPath></defs><g clip-path="url(#clip-0)"><path fill="rgb(74.508667%, 78.42865%, 88.62915%)" d="M 125.964844 89.550781 C 139.871094 89.550781 151.183594 100.894531 151.183594 114.839844 C 151.183594 128.78125 139.871094 140.125 125.964844 140.125 C 112.0625 140.125 100.75 128.78125 100.75 114.839844 C 100.75 100.894531 112.0625 89.550781 125.964844 89.550781 Z M 125.964844 148.828125 C 144.683594 148.828125 159.859375 133.609375 159.859375 114.839844 C 159.859375 96.066406 144.683594 80.847656 125.964844 80.847656 C 107.246094 80.847656 92.074219 96.066406 92.074219 114.839844 C 92.074219 133.609375 107.246094 148.828125 125.964844 148.828125 " fill-opacity="1" fill-rule="nonzero"/></g><g clip-path="url(#clip-1)"><path fill="rgb(74.508667%, 78.42865%, 88.62915%)" d="M 199.695312 89.550781 C 213.601562 89.550781 224.914062 100.894531 224.914062 114.839844 C 224.914062 128.78125 213.601562 140.125 199.695312 140.125 C 185.789062 140.125 174.476562 128.78125 174.476562 114.839844 C 174.476562 100.894531 185.789062 89.550781 199.695312 89.550781 Z M 199.695312 148.828125 C 218.417969 148.828125 233.589844 133.609375 233.589844 114.839844 C 233.589844 96.066406 218.417969 80.847656 199.695312 80.847656 C 180.976562 80.847656 165.800781 96.066406 165.800781 114.839844 C 165.800781 133.609375 180.976562 148.828125 199.695312 148.828125 " fill-opacity="1" fill-rule="nonzero"/></g><g clip-path="url(#clip-2)"><path fill="rgb(74.508667%, 78.42865%, 88.62915%)" d="M 271.75 227.199219 L 250.050781 218.128906 L 250.050781 173.9375 L 271.75 164.871094 Z M 231.972656 175.753906 L 239.203125 175.753906 L 239.203125 216.316406 L 231.972656 216.316406 Z M 215.703125 228.160156 C 215.703125 228.4375 215.476562 228.664062 215.199219 228.664062 L 110.464844 228.664062 C 110.1875 228.664062 109.960938 228.4375 109.960938 228.160156 L 109.960938 163.910156 C 109.960938 163.632812 110.1875 163.402344 110.464844 163.402344 L 215.199219 163.402344 C 215.476562 163.402344 215.703125 163.632812 215.703125 163.910156 Z M 186.894531 250.335938 C 186.894531 250.632812 186.652344 250.875 186.351562 250.875 L 139.308594 250.875 C 139.011719 250.875 138.773438 250.632812 138.773438 250.335938 L 138.773438 239.542969 L 186.894531 239.542969 Z M 278.90625 154.101562 C 276.59375 152.558594 273.6875 152.277344 271.125 153.34375 L 243.714844 164.804688 C 243.617188 164.847656 243.527344 164.902344 243.433594 164.949219 C 243.195312 164.925781 242.96875 164.875 242.726562 164.875 L 228.453125 164.875 C 227.792969 164.875 227.160156 164.992188 226.550781 165.160156 L 226.550781 163.910156 C 226.550781 157.625 221.46875 152.527344 215.199219 152.527344 L 110.464844 152.527344 C 104.195312 152.527344 99.113281 157.625 99.113281 163.910156 L 99.113281 228.160156 C 99.113281 234.445312 104.195312 239.542969 110.464844 239.542969 L 127.925781 239.542969 L 127.925781 250.335938 C 127.925781 256.628906 133.035156 261.753906 139.308594 261.753906 L 150.160156 261.753906 L 130.441406 285.460938 C 128.527344 287.769531 128.835938 291.199219 131.136719 293.121094 C 132.148438 293.96875 133.378906 294.382812 134.605469 294.382812 C 136.15625 294.382812 137.703125 293.71875 138.773438 292.429688 L 157.910156 269.417969 L 157.910156 288.945312 C 157.910156 291.945312 160.335938 294.382812 163.332031 294.382812 C 166.328125 294.382812 168.753906 291.945312 168.753906 288.945312 L 168.753906 268.976562 L 188.253906 292.429688 C 189.328125 293.71875 190.867188 294.382812 192.421875 294.382812 C 193.648438 294.382812 194.878906 293.96875 195.894531 293.121094 C 198.191406 291.199219 198.5 287.769531 196.585938 285.460938 L 176.871094 261.753906 L 186.351562 261.753906 C 192.632812 261.753906 197.738281 256.628906 197.738281 250.335938 L 197.738281 239.542969 L 215.199219 239.542969 C 221.46875 239.542969 226.550781 234.445312 226.550781 228.160156 L 226.550781 226.914062 C 227.160156 227.078125 227.792969 227.195312 228.453125 227.195312 L 242.726562 227.195312 C 242.96875 227.195312 243.195312 227.144531 243.433594 227.121094 C 243.53125 227.167969 243.617188 227.222656 243.714844 227.265625 L 271.125 238.722656 C 272.152344 239.152344 273.238281 239.367188 274.3125 239.367188 C 275.925781 239.367188 277.523438 238.894531 278.90625 237.96875 C 281.214844 236.425781 282.59375 233.839844 282.59375 231.054688 L 282.59375 161.011719 C 282.59375 158.230469 281.214844 155.644531 278.90625 154.101562 " fill-opacity="1" fill-rule="nonzero"/></g><path fill="rgb(74.508667%, 78.42865%, 88.62915%)" d="M 125.964844 125.265625 C 131.699219 125.265625 136.363281 120.589844 136.363281 114.839844 C 136.363281 109.089844 131.699219 104.414062 125.964844 104.414062 C 120.234375 104.414062 115.570312 109.089844 115.570312 114.839844 C 115.570312 120.589844 120.234375 125.265625 125.964844 125.265625 " fill-opacity="1" fill-rule="nonzero"/><path fill="rgb(74.508667%, 78.42865%, 88.62915%)" d="M 199.695312 125.265625 C 205.429688 125.265625 210.097656 120.589844 210.097656 114.839844 C 210.097656 109.089844 205.429688 104.414062 199.695312 104.414062 C 193.964844 104.414062 189.296875 109.089844 189.296875 114.839844 C 189.296875 120.589844 193.964844 125.265625 199.695312 125.265625 " fill-opacity="1" fill-rule="nonzero"/></svg>